<mxfile host="Electron" agent="Mozilla/5.0 (Windows NT 10.0; Win64; x64) AppleWebKit/537.36 (KHTML, like Gecko) draw.io/28.0.6 Chrome/138.0.7204.100 Electron/37.2.3 Safari/537.36" version="28.0.6" pages="2">
  <diagram name="페이지-1" id="PcjeLrfVFOnWVaNegxSR">
    <mxGraphModel dx="2864" dy="1213" grid="1" gridSize="10" guides="1" tooltips="1" connect="1" arrows="1" fold="1" page="1" pageScale="1" pageWidth="827" pageHeight="1169" math="0" shadow="0">
      <root>
        <mxCell id="0" />
        <mxCell id="1" parent="0" />
        <mxCell id="3QXeZZZweoPhM5f8Nh8O-1" value="&lt;font style=&quot;font-size: 32px;&quot;&gt;테이블간 관계가 없는 경우&lt;/font&gt;" style="text;html=1;align=center;verticalAlign=middle;resizable=0;points=[];autosize=1;strokeColor=none;fillColor=none;" vertex="1" parent="1">
          <mxGeometry x="-350" y="30" width="370" height="50" as="geometry" />
        </mxCell>
        <mxCell id="3QXeZZZweoPhM5f8Nh8O-2" value="과일" style="whiteSpace=wrap;html=1;align=center;" vertex="1" parent="1">
          <mxGeometry x="-350" y="110" width="100" height="40" as="geometry" />
        </mxCell>
        <mxCell id="3QXeZZZweoPhM5f8Nh8O-3" value="가전" style="whiteSpace=wrap;html=1;align=center;" vertex="1" parent="1">
          <mxGeometry x="-90" y="110" width="100" height="40" as="geometry" />
        </mxCell>
        <mxCell id="3QXeZZZweoPhM5f8Nh8O-5" value="과일명" style="ellipse;whiteSpace=wrap;html=1;align=center;" vertex="1" parent="1">
          <mxGeometry x="-350" y="170" width="40" height="40" as="geometry" />
        </mxCell>
        <mxCell id="3QXeZZZweoPhM5f8Nh8O-6" value="입고&lt;div&gt;날짜&lt;/div&gt;" style="ellipse;whiteSpace=wrap;html=1;align=center;" vertex="1" parent="1">
          <mxGeometry x="-300" y="170" width="40" height="40" as="geometry" />
        </mxCell>
        <mxCell id="3QXeZZZweoPhM5f8Nh8O-7" value="가격" style="ellipse;whiteSpace=wrap;html=1;align=center;" vertex="1" parent="1">
          <mxGeometry x="-250" y="170" width="40" height="40" as="geometry" />
        </mxCell>
        <mxCell id="3QXeZZZweoPhM5f8Nh8O-10" value="" style="endArrow=none;html=1;rounded=0;entryX=0.5;entryY=1;entryDx=0;entryDy=0;exitX=0.5;exitY=0;exitDx=0;exitDy=0;" edge="1" parent="1" source="3QXeZZZweoPhM5f8Nh8O-6" target="3QXeZZZweoPhM5f8Nh8O-2">
          <mxGeometry width="50" height="50" relative="1" as="geometry">
            <mxPoint x="-230" y="290" as="sourcePoint" />
            <mxPoint x="-180" y="240" as="targetPoint" />
          </mxGeometry>
        </mxCell>
        <mxCell id="3QXeZZZweoPhM5f8Nh8O-11" value="" style="endArrow=none;html=1;rounded=0;entryX=0.5;entryY=1;entryDx=0;entryDy=0;exitX=0.5;exitY=0;exitDx=0;exitDy=0;" edge="1" parent="1" source="3QXeZZZweoPhM5f8Nh8O-7" target="3QXeZZZweoPhM5f8Nh8O-2">
          <mxGeometry width="50" height="50" relative="1" as="geometry">
            <mxPoint x="-230" y="200" as="sourcePoint" />
            <mxPoint x="-230" y="160" as="targetPoint" />
          </mxGeometry>
        </mxCell>
        <mxCell id="3QXeZZZweoPhM5f8Nh8O-12" value="" style="endArrow=none;html=1;rounded=0;entryX=0.5;entryY=1;entryDx=0;entryDy=0;exitX=0.5;exitY=0;exitDx=0;exitDy=0;" edge="1" parent="1" source="3QXeZZZweoPhM5f8Nh8O-5" target="3QXeZZZweoPhM5f8Nh8O-2">
          <mxGeometry width="50" height="50" relative="1" as="geometry">
            <mxPoint x="-400" y="180" as="sourcePoint" />
            <mxPoint x="-450" y="150" as="targetPoint" />
          </mxGeometry>
        </mxCell>
        <mxCell id="3QXeZZZweoPhM5f8Nh8O-13" value="~컬럼S~" style="text;html=1;align=center;verticalAlign=middle;resizable=0;points=[];autosize=1;strokeColor=none;fillColor=none;" vertex="1" parent="1">
          <mxGeometry x="-330" y="210" width="70" height="30" as="geometry" />
        </mxCell>
        <mxCell id="3QXeZZZweoPhM5f8Nh8O-14" value="&lt;u&gt;No&lt;/u&gt;&lt;div&gt;&lt;u&gt;(PK)&lt;/u&gt;&lt;/div&gt;" style="ellipse;whiteSpace=wrap;html=1;align=center;" vertex="1" parent="1">
          <mxGeometry x="-400" y="170" width="40" height="40" as="geometry" />
        </mxCell>
        <mxCell id="3QXeZZZweoPhM5f8Nh8O-15" value="" style="endArrow=none;html=1;rounded=0;entryX=0.5;entryY=1;entryDx=0;entryDy=0;exitX=0.5;exitY=0;exitDx=0;exitDy=0;" edge="1" parent="1" source="3QXeZZZweoPhM5f8Nh8O-14" target="3QXeZZZweoPhM5f8Nh8O-2">
          <mxGeometry width="50" height="50" relative="1" as="geometry">
            <mxPoint x="-410" y="290" as="sourcePoint" />
            <mxPoint x="-370" y="270" as="targetPoint" />
          </mxGeometry>
        </mxCell>
        <mxCell id="3QXeZZZweoPhM5f8Nh8O-16" value="&lt;font style=&quot;font-size: 6px;&quot;&gt;컬럼에 언더바를 붙이면 PK&lt;/font&gt;" style="text;html=1;align=center;verticalAlign=middle;resizable=0;points=[];autosize=1;strokeColor=none;fillColor=none;" vertex="1" parent="1">
          <mxGeometry x="-430" y="200" width="90" height="30" as="geometry" />
        </mxCell>
        <mxCell id="3QXeZZZweoPhM5f8Nh8O-17" value="(과일과 가전) 관계X" style="text;html=1;align=center;verticalAlign=middle;resizable=0;points=[];autosize=1;strokeColor=none;fillColor=none;" vertex="1" parent="1">
          <mxGeometry x="-230" y="115" width="120" height="30" as="geometry" />
        </mxCell>
        <mxCell id="3QXeZZZweoPhM5f8Nh8O-18" value="고객" style="whiteSpace=wrap;html=1;align=center;" vertex="1" parent="1">
          <mxGeometry x="-350" y="250" width="100" height="40" as="geometry" />
        </mxCell>
        <mxCell id="3QXeZZZweoPhM5f8Nh8O-19" value="FAQ" style="whiteSpace=wrap;html=1;align=center;" vertex="1" parent="1">
          <mxGeometry x="-90" y="250" width="100" height="40" as="geometry" />
        </mxCell>
        <mxCell id="3QXeZZZweoPhM5f8Nh8O-20" value="(셋다) 관계X" style="text;html=1;align=center;verticalAlign=middle;resizable=0;points=[];autosize=1;strokeColor=none;fillColor=none;" vertex="1" parent="1">
          <mxGeometry x="-215" y="300" width="90" height="30" as="geometry" />
        </mxCell>
        <mxCell id="3QXeZZZweoPhM5f8Nh8O-21" value="&lt;font style=&quot;font-size: 7px;&quot;&gt;데이터 저장을 기준으로 생각&lt;/font&gt;" style="text;html=1;align=center;verticalAlign=middle;resizable=0;points=[];autosize=1;strokeColor=none;fillColor=none;" vertex="1" parent="1">
          <mxGeometry x="-225" y="310" width="110" height="30" as="geometry" />
        </mxCell>
        <mxCell id="3QXeZZZweoPhM5f8Nh8O-22" value="공지사항" style="whiteSpace=wrap;html=1;align=center;" vertex="1" parent="1">
          <mxGeometry x="-90" y="340" width="100" height="40" as="geometry" />
        </mxCell>
        <mxCell id="3QXeZZZweoPhM5f8Nh8O-23" value="&lt;font style=&quot;font-size: 32px;&quot;&gt;테이블간 관계가 있는 경우&lt;/font&gt;" style="text;html=1;align=center;verticalAlign=middle;resizable=0;points=[];autosize=1;strokeColor=none;fillColor=none;" vertex="1" parent="1">
          <mxGeometry x="310" y="30" width="370" height="50" as="geometry" />
        </mxCell>
        <mxCell id="3QXeZZZweoPhM5f8Nh8O-24" value="남자" style="whiteSpace=wrap;html=1;align=center;" vertex="1" parent="1">
          <mxGeometry x="240" y="120" width="100" height="40" as="geometry" />
        </mxCell>
        <mxCell id="3QXeZZZweoPhM5f8Nh8O-25" value="여자" style="whiteSpace=wrap;html=1;align=center;" vertex="1" parent="1">
          <mxGeometry x="680" y="120" width="100" height="40" as="geometry" />
        </mxCell>
        <mxCell id="3QXeZZZweoPhM5f8Nh8O-26" value="EX) 백화점 기준" style="text;html=1;align=center;verticalAlign=middle;resizable=0;points=[];autosize=1;strokeColor=none;fillColor=none;" vertex="1" parent="1">
          <mxGeometry x="-225" y="78" width="110" height="30" as="geometry" />
        </mxCell>
        <mxCell id="3QXeZZZweoPhM5f8Nh8O-27" value="EX) 결혼정보회사 기준" style="text;html=1;align=center;verticalAlign=middle;resizable=0;points=[];autosize=1;strokeColor=none;fillColor=none;" vertex="1" parent="1">
          <mxGeometry x="435" y="78" width="140" height="30" as="geometry" />
        </mxCell>
        <mxCell id="3QXeZZZweoPhM5f8Nh8O-28" value="결혼" style="shape=rhombus;perimeter=rhombusPerimeter;whiteSpace=wrap;html=1;align=center;" vertex="1" parent="1">
          <mxGeometry x="472.5" y="110" width="65" height="60" as="geometry" />
        </mxCell>
        <mxCell id="3QXeZZZweoPhM5f8Nh8O-29" value="Realationship" style="text;html=1;align=center;verticalAlign=middle;resizable=0;points=[];autosize=1;strokeColor=none;fillColor=none;" vertex="1" parent="1">
          <mxGeometry x="455" y="160" width="100" height="30" as="geometry" />
        </mxCell>
        <mxCell id="3QXeZZZweoPhM5f8Nh8O-30" value="" style="endArrow=none;html=1;rounded=0;entryX=0;entryY=0.5;entryDx=0;entryDy=0;exitX=1;exitY=0.5;exitDx=0;exitDy=0;" edge="1" parent="1" source="3QXeZZZweoPhM5f8Nh8O-24" target="3QXeZZZweoPhM5f8Nh8O-28">
          <mxGeometry width="50" height="50" relative="1" as="geometry">
            <mxPoint x="140" y="270" as="sourcePoint" />
            <mxPoint x="190" y="220" as="targetPoint" />
          </mxGeometry>
        </mxCell>
        <mxCell id="3QXeZZZweoPhM5f8Nh8O-31" value="" style="endArrow=none;html=1;rounded=0;entryX=0;entryY=0.5;entryDx=0;entryDy=0;exitX=1;exitY=0.5;exitDx=0;exitDy=0;" edge="1" parent="1" source="3QXeZZZweoPhM5f8Nh8O-28" target="3QXeZZZweoPhM5f8Nh8O-25">
          <mxGeometry width="50" height="50" relative="1" as="geometry">
            <mxPoint x="550" y="150" as="sourcePoint" />
            <mxPoint x="613" y="150" as="targetPoint" />
          </mxGeometry>
        </mxCell>
        <mxCell id="3QXeZZZweoPhM5f8Nh8O-32" value="1" style="text;html=1;align=center;verticalAlign=middle;resizable=0;points=[];autosize=1;strokeColor=none;fillColor=none;" vertex="1" parent="1">
          <mxGeometry x="410" y="115" width="30" height="30" as="geometry" />
        </mxCell>
        <mxCell id="3QXeZZZweoPhM5f8Nh8O-33" value="1" style="text;html=1;align=center;verticalAlign=middle;resizable=0;points=[];autosize=1;strokeColor=none;fillColor=none;" vertex="1" parent="1">
          <mxGeometry x="455" y="115" width="30" height="30" as="geometry" />
        </mxCell>
        <mxCell id="3QXeZZZweoPhM5f8Nh8O-34" value="1" style="text;html=1;align=center;verticalAlign=middle;resizable=0;points=[];autosize=1;strokeColor=none;fillColor=none;" vertex="1" parent="1">
          <mxGeometry x="540" y="115" width="30" height="30" as="geometry" />
        </mxCell>
        <mxCell id="3QXeZZZweoPhM5f8Nh8O-35" value="1" style="text;html=1;align=center;verticalAlign=middle;resizable=0;points=[];autosize=1;strokeColor=none;fillColor=none;" vertex="1" parent="1">
          <mxGeometry x="580" y="115" width="30" height="30" as="geometry" />
        </mxCell>
        <mxCell id="3QXeZZZweoPhM5f8Nh8O-38" value="&lt;u&gt;남성&lt;/u&gt;&lt;div&gt;&lt;u&gt;ID&lt;/u&gt;&lt;/div&gt;" style="ellipse;whiteSpace=wrap;html=1;align=center;" vertex="1" parent="1">
          <mxGeometry x="218.5" y="180" width="40" height="40" as="geometry" />
        </mxCell>
        <mxCell id="3QXeZZZweoPhM5f8Nh8O-39" value="남성&lt;div&gt;이름&lt;/div&gt;" style="ellipse;whiteSpace=wrap;html=1;align=center;" vertex="1" parent="1">
          <mxGeometry x="268.5" y="180" width="40" height="40" as="geometry" />
        </mxCell>
        <mxCell id="3QXeZZZweoPhM5f8Nh8O-40" value="주소" style="ellipse;whiteSpace=wrap;html=1;align=center;" vertex="1" parent="1">
          <mxGeometry x="321.5" y="180" width="40" height="40" as="geometry" />
        </mxCell>
        <mxCell id="3QXeZZZweoPhM5f8Nh8O-41" value="&lt;u&gt;여성&lt;br&gt;ID&lt;/u&gt;" style="ellipse;whiteSpace=wrap;html=1;align=center;" vertex="1" parent="1">
          <mxGeometry x="660" y="180" width="40" height="40" as="geometry" />
        </mxCell>
        <mxCell id="3QXeZZZweoPhM5f8Nh8O-42" value="여성&lt;div&gt;이름&lt;/div&gt;" style="ellipse;whiteSpace=wrap;html=1;align=center;" vertex="1" parent="1">
          <mxGeometry x="710" y="180" width="40" height="40" as="geometry" />
        </mxCell>
        <mxCell id="3QXeZZZweoPhM5f8Nh8O-43" value="주소" style="ellipse;whiteSpace=wrap;html=1;align=center;" vertex="1" parent="1">
          <mxGeometry x="760" y="180" width="40" height="40" as="geometry" />
        </mxCell>
        <mxCell id="3QXeZZZweoPhM5f8Nh8O-44" value="1:1 기준" style="text;html=1;align=center;verticalAlign=middle;resizable=0;points=[];autosize=1;strokeColor=none;fillColor=none;" vertex="1" parent="1">
          <mxGeometry x="530" y="145" width="70" height="30" as="geometry" />
        </mxCell>
        <mxCell id="3QXeZZZweoPhM5f8Nh8O-45" value="날짜" style="ellipse;whiteSpace=wrap;html=1;align=center;" vertex="1" parent="1">
          <mxGeometry x="525" y="180" width="40" height="40" as="geometry" />
        </mxCell>
        <mxCell id="3QXeZZZweoPhM5f8Nh8O-48" value="남성&lt;div&gt;ID&lt;/div&gt;" style="ellipse;whiteSpace=wrap;html=1;align=center;" vertex="1" parent="1">
          <mxGeometry x="445" y="180" width="40" height="40" as="geometry" />
        </mxCell>
        <mxCell id="3QXeZZZweoPhM5f8Nh8O-49" value="여성&lt;div&gt;ID&lt;/div&gt;" style="ellipse;whiteSpace=wrap;html=1;align=center;" vertex="1" parent="1">
          <mxGeometry x="485" y="180" width="40" height="40" as="geometry" />
        </mxCell>
        <mxCell id="3QXeZZZweoPhM5f8Nh8O-51" value="&lt;font style=&quot;font-size: 10px;&quot;&gt;FK(외래키)&lt;/font&gt;&lt;div&gt;&lt;font style=&quot;font-size: 8px;&quot;&gt;제약조건 : 기본키에 있는 값만 입력가능&lt;/font&gt;&lt;/div&gt;" style="text;html=1;align=center;verticalAlign=middle;resizable=0;points=[];autosize=1;strokeColor=none;fillColor=none;" vertex="1" parent="1">
          <mxGeometry x="380" y="215" width="150" height="40" as="geometry" />
        </mxCell>
        <mxCell id="3QXeZZZweoPhM5f8Nh8O-56" value="PK" style="text;html=1;align=center;verticalAlign=middle;resizable=0;points=[];autosize=1;strokeColor=none;fillColor=none;" vertex="1" parent="1">
          <mxGeometry x="218.5" y="220" width="40" height="30" as="geometry" />
        </mxCell>
        <mxCell id="3QXeZZZweoPhM5f8Nh8O-57" value="" style="endArrow=none;html=1;rounded=0;exitX=0;exitY=0.5;exitDx=0;exitDy=0;" edge="1" parent="1" source="3QXeZZZweoPhM5f8Nh8O-48">
          <mxGeometry width="50" height="50" relative="1" as="geometry">
            <mxPoint x="550" y="250" as="sourcePoint" />
            <mxPoint x="240" y="220" as="targetPoint" />
            <Array as="points">
              <mxPoint x="240" y="250" />
            </Array>
          </mxGeometry>
        </mxCell>
        <mxCell id="3QXeZZZweoPhM5f8Nh8O-58" value="부모" style="text;html=1;align=center;verticalAlign=middle;resizable=0;points=[];autosize=1;strokeColor=none;fillColor=none;" vertex="1" parent="1">
          <mxGeometry x="213.5" y="240" width="50" height="30" as="geometry" />
        </mxCell>
        <mxCell id="3QXeZZZweoPhM5f8Nh8O-59" value="자식" style="text;html=1;align=center;verticalAlign=middle;resizable=0;points=[];autosize=1;strokeColor=none;fillColor=none;" vertex="1" parent="1">
          <mxGeometry x="430" y="250" width="50" height="30" as="geometry" />
        </mxCell>
        <mxCell id="3QXeZZZweoPhM5f8Nh8O-60" value="고객" style="whiteSpace=wrap;html=1;align=center;" vertex="1" parent="1">
          <mxGeometry x="240" y="340" width="100" height="40" as="geometry" />
        </mxCell>
        <mxCell id="3QXeZZZweoPhM5f8Nh8O-61" value="차량정보" style="whiteSpace=wrap;html=1;align=center;" vertex="1" parent="1">
          <mxGeometry x="680" y="340" width="100" height="40" as="geometry" />
        </mxCell>
        <mxCell id="3QXeZZZweoPhM5f8Nh8O-62" value="구매" style="shape=rhombus;perimeter=rhombusPerimeter;whiteSpace=wrap;html=1;align=center;" vertex="1" parent="1">
          <mxGeometry x="472.5" y="330" width="65" height="60" as="geometry" />
        </mxCell>
        <mxCell id="3QXeZZZweoPhM5f8Nh8O-63" value="&lt;font style=&quot;font-size: 7px;&quot;&gt;마름모 : 얘들을 위한 관계테이블이 들어갔다는 뜻&lt;/font&gt;" style="text;html=1;align=center;verticalAlign=middle;resizable=0;points=[];autosize=1;strokeColor=none;fillColor=none;" vertex="1" parent="1">
          <mxGeometry x="420" y="380" width="170" height="30" as="geometry" />
        </mxCell>
        <mxCell id="3QXeZZZweoPhM5f8Nh8O-64" value="" style="endArrow=none;html=1;rounded=0;entryX=0;entryY=0.5;entryDx=0;entryDy=0;exitX=1;exitY=0.5;exitDx=0;exitDy=0;" edge="1" parent="1" source="3QXeZZZweoPhM5f8Nh8O-60" target="3QXeZZZweoPhM5f8Nh8O-62">
          <mxGeometry width="50" height="50" relative="1" as="geometry">
            <mxPoint x="390" y="330" as="sourcePoint" />
            <mxPoint x="523" y="330" as="targetPoint" />
          </mxGeometry>
        </mxCell>
        <mxCell id="3QXeZZZweoPhM5f8Nh8O-65" value="" style="endArrow=none;html=1;rounded=0;entryX=0;entryY=0.5;entryDx=0;entryDy=0;exitX=1;exitY=0.5;exitDx=0;exitDy=0;" edge="1" parent="1" source="3QXeZZZweoPhM5f8Nh8O-62" target="3QXeZZZweoPhM5f8Nh8O-61">
          <mxGeometry width="50" height="50" relative="1" as="geometry">
            <mxPoint x="570" y="420" as="sourcePoint" />
            <mxPoint x="703" y="420" as="targetPoint" />
          </mxGeometry>
        </mxCell>
        <mxCell id="3QXeZZZweoPhM5f8Nh8O-66" value="1" style="text;html=1;align=center;verticalAlign=middle;resizable=0;points=[];autosize=1;strokeColor=none;fillColor=none;" vertex="1" parent="1">
          <mxGeometry x="335" y="328" width="30" height="30" as="geometry" />
        </mxCell>
        <mxCell id="3QXeZZZweoPhM5f8Nh8O-67" value="1" style="text;html=1;align=center;verticalAlign=middle;resizable=0;points=[];autosize=1;strokeColor=none;fillColor=none;" vertex="1" parent="1">
          <mxGeometry x="445" y="328" width="30" height="30" as="geometry" />
        </mxCell>
        <mxCell id="3QXeZZZweoPhM5f8Nh8O-68" value="N" style="text;html=1;align=center;verticalAlign=middle;resizable=0;points=[];autosize=1;strokeColor=none;fillColor=none;" vertex="1" parent="1">
          <mxGeometry x="525" y="328" width="30" height="30" as="geometry" />
        </mxCell>
        <mxCell id="3QXeZZZweoPhM5f8Nh8O-69" value="1" style="text;html=1;align=center;verticalAlign=middle;resizable=0;points=[];autosize=1;strokeColor=none;fillColor=none;" vertex="1" parent="1">
          <mxGeometry x="645" y="328" width="30" height="30" as="geometry" />
        </mxCell>
        <mxCell id="3QXeZZZweoPhM5f8Nh8O-70" value="&lt;font style=&quot;font-size: 8px;&quot;&gt;구매가 안들어가면 1:N&lt;/font&gt;" style="text;html=1;align=center;verticalAlign=middle;resizable=0;points=[];autosize=1;strokeColor=none;fillColor=none;" vertex="1" parent="1">
          <mxGeometry x="455" y="390" width="100" height="30" as="geometry" />
        </mxCell>
        <mxCell id="3QXeZZZweoPhM5f8Nh8O-71" value="&lt;div&gt;&lt;font style=&quot;font-size: 7px;&quot;&gt;고객&lt;span style=&quot;white-space: pre;&quot;&gt;&#x9;&lt;span style=&quot;white-space: pre;&quot;&gt;&#x9;&lt;/span&gt;&lt;/span&gt;차량&lt;span style=&quot;white-space: pre;&quot;&gt;&#x9;&lt;/span&gt;&lt;/font&gt;&lt;/div&gt;&lt;font style=&quot;font-size: 7px;&quot;&gt;a&lt;span style=&quot;white-space: pre;&quot;&gt;&#x9;&lt;/span&gt;&amp;nbsp; &amp;nbsp; &amp;nbsp;소나타&lt;/font&gt;&lt;div&gt;&lt;font style=&quot;font-size: 7px;&quot;&gt;b&lt;span style=&quot;white-space: pre;&quot;&gt;&#x9;&lt;/span&gt;&amp;nbsp; &amp;nbsp; &amp;nbsp;그랜저&lt;/font&gt;&lt;/div&gt;&lt;div&gt;&lt;font style=&quot;font-size: 7px;&quot;&gt;a가 2대를 다 구매도 가능함&lt;/font&gt;.&lt;/div&gt;" style="text;html=1;align=center;verticalAlign=middle;resizable=0;points=[];autosize=1;strokeColor=none;fillColor=none;" vertex="1" parent="1">
          <mxGeometry x="555" y="288" width="110" height="70" as="geometry" />
        </mxCell>
        <mxCell id="3QXeZZZweoPhM5f8Nh8O-72" value="사람" style="whiteSpace=wrap;html=1;align=center;" vertex="1" parent="1">
          <mxGeometry x="240" y="560" width="100" height="40" as="geometry" />
        </mxCell>
        <mxCell id="3QXeZZZweoPhM5f8Nh8O-73" value="지문" style="whiteSpace=wrap;html=1;align=center;" vertex="1" parent="1">
          <mxGeometry x="680" y="560" width="100" height="40" as="geometry" />
        </mxCell>
        <mxCell id="3QXeZZZweoPhM5f8Nh8O-74" value="주민&lt;div&gt;번호&lt;/div&gt;&lt;div&gt;&lt;u&gt;(PK)&lt;/u&gt;&lt;/div&gt;" style="ellipse;whiteSpace=wrap;html=1;align=center;fontStyle=4" vertex="1" parent="1">
          <mxGeometry x="240" y="620" width="40" height="40" as="geometry" />
        </mxCell>
        <mxCell id="3QXeZZZweoPhM5f8Nh8O-75" value="EX)현대차" style="text;html=1;align=center;verticalAlign=middle;resizable=0;points=[];autosize=1;strokeColor=none;fillColor=none;" vertex="1" parent="1">
          <mxGeometry x="465" y="300" width="80" height="30" as="geometry" />
        </mxCell>
        <mxCell id="3QXeZZZweoPhM5f8Nh8O-76" value="EX)공공기관" style="text;html=1;align=center;verticalAlign=middle;resizable=0;points=[];autosize=1;strokeColor=none;fillColor=none;" vertex="1" parent="1">
          <mxGeometry x="425" y="498" width="90" height="30" as="geometry" />
        </mxCell>
        <mxCell id="3QXeZZZweoPhM5f8Nh8O-77" value="이름" style="ellipse;whiteSpace=wrap;html=1;align=center;fontStyle=0" vertex="1" parent="1">
          <mxGeometry x="300" y="620" width="40" height="40" as="geometry" />
        </mxCell>
        <mxCell id="3QXeZZZweoPhM5f8Nh8O-78" value="&lt;u&gt;지문 ID&lt;/u&gt;&lt;div&gt;&lt;u&gt;(PK)&lt;/u&gt;&lt;/div&gt;" style="ellipse;whiteSpace=wrap;html=1;align=center;fontStyle=0" vertex="1" parent="1">
          <mxGeometry x="635" y="620" width="40" height="40" as="geometry" />
        </mxCell>
        <mxCell id="3QXeZZZweoPhM5f8Nh8O-79" value="엄지&lt;div&gt;지문&lt;/div&gt;" style="ellipse;whiteSpace=wrap;html=1;align=center;fontStyle=0" vertex="1" parent="1">
          <mxGeometry x="730" y="620" width="40" height="40" as="geometry" />
        </mxCell>
        <mxCell id="3QXeZZZweoPhM5f8Nh8O-80" value="검지&lt;br&gt;&lt;div&gt;지문&lt;/div&gt;" style="ellipse;whiteSpace=wrap;html=1;align=center;fontStyle=0" vertex="1" parent="1">
          <mxGeometry x="780" y="620" width="40" height="40" as="geometry" />
        </mxCell>
        <mxCell id="3QXeZZZweoPhM5f8Nh8O-82" value="&lt;font style=&quot;font-size: 10px;&quot;&gt;1:1이나 1:N은&amp;nbsp;&lt;/font&gt;&lt;div&gt;&lt;font style=&quot;font-size: 10px;&quot;&gt;관계형 테이블을 안만들어도 된다&lt;/font&gt;&lt;/div&gt;" style="text;html=1;align=center;verticalAlign=middle;resizable=0;points=[];autosize=1;strokeColor=none;fillColor=none;" vertex="1" parent="1">
          <mxGeometry x="420" y="540" width="160" height="40" as="geometry" />
        </mxCell>
        <mxCell id="3QXeZZZweoPhM5f8Nh8O-83" value="" style="endArrow=none;html=1;rounded=0;entryX=0;entryY=0.5;entryDx=0;entryDy=0;exitX=1;exitY=0.5;exitDx=0;exitDy=0;" edge="1" parent="1" source="3QXeZZZweoPhM5f8Nh8O-72" target="3QXeZZZweoPhM5f8Nh8O-73">
          <mxGeometry width="50" height="50" relative="1" as="geometry">
            <mxPoint x="455" y="579.66" as="sourcePoint" />
            <mxPoint x="588" y="579.66" as="targetPoint" />
          </mxGeometry>
        </mxCell>
        <mxCell id="3QXeZZZweoPhM5f8Nh8O-84" value="1" style="text;html=1;align=center;verticalAlign=middle;resizable=0;points=[];autosize=1;strokeColor=none;fillColor=none;" vertex="1" parent="1">
          <mxGeometry x="340" y="550" width="30" height="30" as="geometry" />
        </mxCell>
        <mxCell id="3QXeZZZweoPhM5f8Nh8O-85" value="1" style="text;html=1;align=center;verticalAlign=middle;resizable=0;points=[];autosize=1;strokeColor=none;fillColor=none;" vertex="1" parent="1">
          <mxGeometry x="650" y="550" width="30" height="30" as="geometry" />
        </mxCell>
        <mxCell id="3QXeZZZweoPhM5f8Nh8O-87" value="주민&lt;div&gt;번호&lt;/div&gt;&lt;div&gt;(FK)&lt;/div&gt;" style="ellipse;whiteSpace=wrap;html=1;align=center;fontStyle=0" vertex="1" parent="1">
          <mxGeometry x="680" y="620" width="40" height="40" as="geometry" />
        </mxCell>
        <mxCell id="3QXeZZZweoPhM5f8Nh8O-88" value="문제 1&lt;div&gt;ex) 쇼핑몰&lt;/div&gt;" style="text;html=1;align=center;verticalAlign=middle;resizable=0;points=[];autosize=1;strokeColor=none;fillColor=none;" vertex="1" parent="1">
          <mxGeometry x="472.5" y="750" width="80" height="40" as="geometry" />
        </mxCell>
        <mxCell id="3QXeZZZweoPhM5f8Nh8O-89" value="고객" style="whiteSpace=wrap;html=1;align=center;" vertex="1" parent="1">
          <mxGeometry x="238.5" y="800" width="100" height="40" as="geometry" />
        </mxCell>
        <mxCell id="3QXeZZZweoPhM5f8Nh8O-90" value="장바구니" style="whiteSpace=wrap;html=1;align=center;" vertex="1" parent="1">
          <mxGeometry x="680" y="800" width="100" height="40" as="geometry" />
        </mxCell>
        <mxCell id="3QXeZZZweoPhM5f8Nh8O-91" value="고객" style="whiteSpace=wrap;html=1;align=center;" vertex="1" parent="1">
          <mxGeometry x="238.5" y="960" width="100" height="40" as="geometry" />
        </mxCell>
        <mxCell id="3QXeZZZweoPhM5f8Nh8O-92" value="제품" style="whiteSpace=wrap;html=1;align=center;" vertex="1" parent="1">
          <mxGeometry x="680" y="960" width="100" height="40" as="geometry" />
        </mxCell>
        <mxCell id="3QXeZZZweoPhM5f8Nh8O-94" value="&lt;u&gt;ID&lt;/u&gt;&lt;div&gt;&lt;u&gt;(PK)&lt;/u&gt;&lt;/div&gt;" style="ellipse;whiteSpace=wrap;html=1;align=center;fontStyle=0" vertex="1" parent="1">
          <mxGeometry x="220" y="860" width="40" height="40" as="geometry" />
        </mxCell>
        <mxCell id="3QXeZZZweoPhM5f8Nh8O-95" value="이름" style="ellipse;whiteSpace=wrap;html=1;align=center;fontStyle=0" vertex="1" parent="1">
          <mxGeometry x="270" y="860" width="40" height="40" as="geometry" />
        </mxCell>
        <mxCell id="3QXeZZZweoPhM5f8Nh8O-96" value="주소" style="ellipse;whiteSpace=wrap;html=1;align=center;fontStyle=0" vertex="1" parent="1">
          <mxGeometry x="320" y="860" width="40" height="40" as="geometry" />
        </mxCell>
        <mxCell id="3QXeZZZweoPhM5f8Nh8O-97" value="&lt;u&gt;ID&lt;/u&gt;&lt;div&gt;&lt;u&gt;(PK)&lt;/u&gt;&lt;/div&gt;" style="ellipse;whiteSpace=wrap;html=1;align=center;fontStyle=0" vertex="1" parent="1">
          <mxGeometry x="218.5" y="1020" width="40" height="40" as="geometry" />
        </mxCell>
        <mxCell id="3QXeZZZweoPhM5f8Nh8O-98" value="이름" style="ellipse;whiteSpace=wrap;html=1;align=center;fontStyle=0" vertex="1" parent="1">
          <mxGeometry x="268.5" y="1020" width="40" height="40" as="geometry" />
        </mxCell>
        <mxCell id="3QXeZZZweoPhM5f8Nh8O-99" value="주소" style="ellipse;whiteSpace=wrap;html=1;align=center;fontStyle=0" vertex="1" parent="1">
          <mxGeometry x="320" y="1020" width="40" height="40" as="geometry" />
        </mxCell>
        <mxCell id="3QXeZZZweoPhM5f8Nh8O-100" value="가격" style="ellipse;whiteSpace=wrap;html=1;align=center;fontStyle=0" vertex="1" parent="1">
          <mxGeometry x="660" y="1020" width="40" height="40" as="geometry" />
        </mxCell>
        <mxCell id="3QXeZZZweoPhM5f8Nh8O-101" value="제품ID" style="ellipse;whiteSpace=wrap;html=1;align=center;fontStyle=0" vertex="1" parent="1">
          <mxGeometry x="710" y="1020" width="40" height="40" as="geometry" />
        </mxCell>
        <mxCell id="3QXeZZZweoPhM5f8Nh8O-102" value="특징" style="ellipse;whiteSpace=wrap;html=1;align=center;fontStyle=0" vertex="1" parent="1">
          <mxGeometry x="760" y="1020" width="40" height="40" as="geometry" />
        </mxCell>
        <mxCell id="3QXeZZZweoPhM5f8Nh8O-103" value="구매" style="ellipse;whiteSpace=wrap;html=1;align=center;fontStyle=0" vertex="1" parent="1">
          <mxGeometry x="685" y="860" width="40" height="40" as="geometry" />
        </mxCell>
        <mxCell id="3QXeZZZweoPhM5f8Nh8O-104" value="취소" style="ellipse;whiteSpace=wrap;html=1;align=center;fontStyle=0" vertex="1" parent="1">
          <mxGeometry x="735" y="860" width="40" height="40" as="geometry" />
        </mxCell>
        <mxCell id="3QXeZZZweoPhM5f8Nh8O-105" value="보류" style="ellipse;whiteSpace=wrap;html=1;align=center;fontStyle=0" vertex="1" parent="1">
          <mxGeometry x="785" y="860" width="40" height="40" as="geometry" />
        </mxCell>
        <mxCell id="3QXeZZZweoPhM5f8Nh8O-107" value="N : 1&lt;div&gt;&lt;font style=&quot;font-size: 8px;&quot;&gt;고객이 여러 장바구니 OK&lt;/font&gt;&lt;/div&gt;&lt;div&gt;&lt;font style=&quot;font-size: 8px;&quot;&gt;장바구니는 여러명 고객 X&lt;/font&gt;&lt;/div&gt;" style="text;html=1;align=center;verticalAlign=middle;resizable=0;points=[];autosize=1;strokeColor=none;fillColor=none;" vertex="1" parent="1">
          <mxGeometry x="455" y="850" width="110" height="60" as="geometry" />
        </mxCell>
        <mxCell id="3QXeZZZweoPhM5f8Nh8O-108" value="ID&lt;div&gt;(FK)&lt;/div&gt;" style="ellipse;whiteSpace=wrap;html=1;align=center;fontStyle=0" vertex="1" parent="1">
          <mxGeometry x="635" y="860" width="40" height="40" as="geometry" />
        </mxCell>
        <mxCell id="3QXeZZZweoPhM5f8Nh8O-109" value="직원" style="whiteSpace=wrap;html=1;align=center;" vertex="1" parent="1">
          <mxGeometry x="238.5" y="1120" width="100" height="40" as="geometry" />
        </mxCell>
        <mxCell id="3QXeZZZweoPhM5f8Nh8O-110" value="컴퓨터 본체" style="whiteSpace=wrap;html=1;align=center;" vertex="1" parent="1">
          <mxGeometry x="238.5" y="1240" width="100" height="40" as="geometry" />
        </mxCell>
        <mxCell id="3QXeZZZweoPhM5f8Nh8O-111" value="수업과목" style="whiteSpace=wrap;html=1;align=center;" vertex="1" parent="1">
          <mxGeometry x="238.5" y="1370" width="100" height="40" as="geometry" />
        </mxCell>
        <mxCell id="3QXeZZZweoPhM5f8Nh8O-112" value="부서" style="whiteSpace=wrap;html=1;align=center;" vertex="1" parent="1">
          <mxGeometry x="680" y="1120" width="100" height="40" as="geometry" />
        </mxCell>
        <mxCell id="3QXeZZZweoPhM5f8Nh8O-113" value="모니터" style="whiteSpace=wrap;html=1;align=center;" vertex="1" parent="1">
          <mxGeometry x="678.5" y="1240" width="100" height="40" as="geometry" />
        </mxCell>
        <mxCell id="3QXeZZZweoPhM5f8Nh8O-114" value="학생" style="whiteSpace=wrap;html=1;align=center;" vertex="1" parent="1">
          <mxGeometry x="678.5" y="1370" width="100" height="40" as="geometry" />
        </mxCell>
        <mxCell id="3QXeZZZweoPhM5f8Nh8O-117" value="고객" style="whiteSpace=wrap;html=1;align=center;" vertex="1" parent="1">
          <mxGeometry x="910" y="800" width="100" height="40" as="geometry" />
        </mxCell>
        <mxCell id="3QXeZZZweoPhM5f8Nh8O-118" value="장바구니" style="whiteSpace=wrap;html=1;align=center;" vertex="1" parent="1">
          <mxGeometry x="1351.5" y="800" width="100" height="40" as="geometry" />
        </mxCell>
        <mxCell id="3QXeZZZweoPhM5f8Nh8O-122" value="&lt;u&gt;ID&lt;/u&gt;&lt;div&gt;&lt;u&gt;(PK)&lt;/u&gt;&lt;/div&gt;" style="ellipse;whiteSpace=wrap;html=1;align=center;fontStyle=0" vertex="1" parent="1">
          <mxGeometry x="891.5" y="570" width="40" height="40" as="geometry" />
        </mxCell>
        <mxCell id="3QXeZZZweoPhM5f8Nh8O-123" value="이름" style="ellipse;whiteSpace=wrap;html=1;align=center;fontStyle=0" vertex="1" parent="1">
          <mxGeometry x="941.5" y="570" width="40" height="40" as="geometry" />
        </mxCell>
        <mxCell id="3QXeZZZweoPhM5f8Nh8O-124" value="주소" style="ellipse;whiteSpace=wrap;html=1;align=center;fontStyle=0" vertex="1" parent="1">
          <mxGeometry x="991.5" y="570" width="40" height="40" as="geometry" />
        </mxCell>
        <mxCell id="3QXeZZZweoPhM5f8Nh8O-137" value="직원" style="whiteSpace=wrap;html=1;align=center;" vertex="1" parent="1">
          <mxGeometry x="910" y="1120" width="100" height="40" as="geometry" />
        </mxCell>
        <mxCell id="3QXeZZZweoPhM5f8Nh8O-138" value="컴퓨터 본체" style="whiteSpace=wrap;html=1;align=center;" vertex="1" parent="1">
          <mxGeometry x="916.5" y="1240" width="100" height="40" as="geometry" />
        </mxCell>
        <mxCell id="3QXeZZZweoPhM5f8Nh8O-139" value="강의" style="whiteSpace=wrap;html=1;align=center;" vertex="1" parent="1">
          <mxGeometry x="1531.5" y="1790" width="100" height="40" as="geometry" />
        </mxCell>
        <mxCell id="3QXeZZZweoPhM5f8Nh8O-140" value="부서" style="whiteSpace=wrap;html=1;align=center;" vertex="1" parent="1">
          <mxGeometry x="1351.5" y="1120" width="100" height="40" as="geometry" />
        </mxCell>
        <mxCell id="3QXeZZZweoPhM5f8Nh8O-141" value="모니터" style="whiteSpace=wrap;html=1;align=center;" vertex="1" parent="1">
          <mxGeometry x="1356.5" y="1240" width="100" height="40" as="geometry" />
        </mxCell>
        <mxCell id="3QXeZZZweoPhM5f8Nh8O-142" value="학생" style="whiteSpace=wrap;html=1;align=center;" vertex="1" parent="1">
          <mxGeometry x="2045" y="1790" width="100" height="40" as="geometry" />
        </mxCell>
        <mxCell id="3QXeZZZweoPhM5f8Nh8O-144" value="N : M&lt;div&gt;&lt;font style=&quot;font-size: 8px;&quot;&gt;고객이 여러 제품 OK&lt;/font&gt;&lt;/div&gt;&lt;div&gt;&lt;font style=&quot;font-size: 8px;&quot;&gt;제품이 여러고객에게 OK&lt;/font&gt;&lt;/div&gt;" style="text;html=1;align=center;verticalAlign=middle;resizable=0;points=[];autosize=1;strokeColor=none;fillColor=none;" vertex="1" parent="1">
          <mxGeometry x="50" y="940" width="110" height="60" as="geometry" />
        </mxCell>
        <mxCell id="3QXeZZZweoPhM5f8Nh8O-145" value="구매" style="shape=rhombus;perimeter=rhombusPerimeter;whiteSpace=wrap;html=1;align=center;" vertex="1" parent="1">
          <mxGeometry x="477.5" y="950" width="65" height="60" as="geometry" />
        </mxCell>
        <mxCell id="3QXeZZZweoPhM5f8Nh8O-146" value="" style="endArrow=none;html=1;rounded=0;exitX=1;exitY=0.5;exitDx=0;exitDy=0;entryX=0;entryY=0.5;entryDx=0;entryDy=0;" edge="1" parent="1" source="3QXeZZZweoPhM5f8Nh8O-91" target="3QXeZZZweoPhM5f8Nh8O-145">
          <mxGeometry width="50" height="50" relative="1" as="geometry">
            <mxPoint x="380" y="930" as="sourcePoint" />
            <mxPoint x="721" y="930" as="targetPoint" />
          </mxGeometry>
        </mxCell>
        <mxCell id="3QXeZZZweoPhM5f8Nh8O-147" value="" style="endArrow=none;html=1;rounded=0;exitX=1;exitY=0.5;exitDx=0;exitDy=0;entryX=0;entryY=0.5;entryDx=0;entryDy=0;" edge="1" parent="1" source="3QXeZZZweoPhM5f8Nh8O-145" target="3QXeZZZweoPhM5f8Nh8O-92">
          <mxGeometry width="50" height="50" relative="1" as="geometry">
            <mxPoint x="590" y="960" as="sourcePoint" />
            <mxPoint x="729" y="960" as="targetPoint" />
          </mxGeometry>
        </mxCell>
        <mxCell id="3QXeZZZweoPhM5f8Nh8O-148" value="1" style="text;html=1;align=center;verticalAlign=middle;resizable=0;points=[];autosize=1;strokeColor=none;fillColor=none;" vertex="1" parent="1">
          <mxGeometry x="338.5" y="950" width="30" height="30" as="geometry" />
        </mxCell>
        <mxCell id="3QXeZZZweoPhM5f8Nh8O-149" value="N" style="text;html=1;align=center;verticalAlign=middle;resizable=0;points=[];autosize=1;strokeColor=none;fillColor=none;" vertex="1" parent="1">
          <mxGeometry x="450" y="950" width="30" height="30" as="geometry" />
        </mxCell>
        <mxCell id="3QXeZZZweoPhM5f8Nh8O-150" value="1" style="text;html=1;align=center;verticalAlign=middle;resizable=0;points=[];autosize=1;strokeColor=none;fillColor=none;" vertex="1" parent="1">
          <mxGeometry x="650" y="950" width="30" height="30" as="geometry" />
        </mxCell>
        <mxCell id="3QXeZZZweoPhM5f8Nh8O-151" value="M" style="text;html=1;align=center;verticalAlign=middle;resizable=0;points=[];autosize=1;strokeColor=none;fillColor=none;" vertex="1" parent="1">
          <mxGeometry x="542.5" y="950" width="30" height="30" as="geometry" />
        </mxCell>
        <mxCell id="3QXeZZZweoPhM5f8Nh8O-152" value="수강" style="shape=rhombus;perimeter=rhombusPerimeter;whiteSpace=wrap;html=1;align=center;" vertex="1" parent="1">
          <mxGeometry x="490" y="1360" width="65" height="60" as="geometry" />
        </mxCell>
        <mxCell id="3QXeZZZweoPhM5f8Nh8O-153" value="" style="endArrow=none;html=1;rounded=0;exitX=1;exitY=0.5;exitDx=0;exitDy=0;entryX=0;entryY=0.5;entryDx=0;entryDy=0;" edge="1" parent="1" source="3QXeZZZweoPhM5f8Nh8O-111" target="3QXeZZZweoPhM5f8Nh8O-152">
          <mxGeometry width="50" height="50" relative="1" as="geometry">
            <mxPoint x="380" y="1360" as="sourcePoint" />
            <mxPoint x="519" y="1360" as="targetPoint" />
          </mxGeometry>
        </mxCell>
        <mxCell id="3QXeZZZweoPhM5f8Nh8O-154" value="" style="endArrow=none;html=1;rounded=0;exitX=1;exitY=0.5;exitDx=0;exitDy=0;entryX=0;entryY=0.5;entryDx=0;entryDy=0;" edge="1" parent="1" source="3QXeZZZweoPhM5f8Nh8O-152" target="3QXeZZZweoPhM5f8Nh8O-114">
          <mxGeometry width="50" height="50" relative="1" as="geometry">
            <mxPoint x="570" y="1320" as="sourcePoint" />
            <mxPoint x="709" y="1320" as="targetPoint" />
          </mxGeometry>
        </mxCell>
        <mxCell id="3QXeZZZweoPhM5f8Nh8O-155" value="N : M&lt;div&gt;&lt;font style=&quot;font-size: 8px;&quot;&gt;학생이 여러 수업 OK&lt;/font&gt;&lt;/div&gt;&lt;div&gt;&lt;font style=&quot;font-size: 8px;&quot;&gt;수업이 여러 학생에게 OK&lt;/font&gt;&lt;/div&gt;" style="text;html=1;align=center;verticalAlign=middle;resizable=0;points=[];autosize=1;strokeColor=none;fillColor=none;" vertex="1" parent="1">
          <mxGeometry x="462.5" y="1420" width="110" height="60" as="geometry" />
        </mxCell>
        <mxCell id="3QXeZZZweoPhM5f8Nh8O-156" value="1" style="text;html=1;align=center;verticalAlign=middle;resizable=0;points=[];autosize=1;strokeColor=none;fillColor=none;" vertex="1" parent="1">
          <mxGeometry x="338.5" y="1360" width="30" height="30" as="geometry" />
        </mxCell>
        <mxCell id="3QXeZZZweoPhM5f8Nh8O-157" value="N" style="text;html=1;align=center;verticalAlign=middle;resizable=0;points=[];autosize=1;strokeColor=none;fillColor=none;" vertex="1" parent="1">
          <mxGeometry x="460" y="1360" width="30" height="30" as="geometry" />
        </mxCell>
        <mxCell id="3QXeZZZweoPhM5f8Nh8O-158" value="1" style="text;html=1;align=center;verticalAlign=middle;resizable=0;points=[];autosize=1;strokeColor=none;fillColor=none;" vertex="1" parent="1">
          <mxGeometry x="648.5" y="1360" width="30" height="30" as="geometry" />
        </mxCell>
        <mxCell id="3QXeZZZweoPhM5f8Nh8O-159" value="M" style="text;html=1;align=center;verticalAlign=middle;resizable=0;points=[];autosize=1;strokeColor=none;fillColor=none;" vertex="1" parent="1">
          <mxGeometry x="555" y="1360" width="30" height="30" as="geometry" />
        </mxCell>
        <mxCell id="3QXeZZZweoPhM5f8Nh8O-161" value="이름" style="ellipse;whiteSpace=wrap;html=1;align=center;fontStyle=0" vertex="1" parent="1">
          <mxGeometry x="710" y="1430" width="40" height="40" as="geometry" />
        </mxCell>
        <mxCell id="3QXeZZZweoPhM5f8Nh8O-162" value="나이" style="ellipse;whiteSpace=wrap;html=1;align=center;fontStyle=0" vertex="1" parent="1">
          <mxGeometry x="760" y="1430" width="40" height="40" as="geometry" />
        </mxCell>
        <mxCell id="3QXeZZZweoPhM5f8Nh8O-163" value="학번" style="ellipse;whiteSpace=wrap;html=1;align=center;fontStyle=0" vertex="1" parent="1">
          <mxGeometry x="660" y="1430" width="40" height="40" as="geometry" />
        </mxCell>
        <mxCell id="3QXeZZZweoPhM5f8Nh8O-164" value="전공" style="ellipse;whiteSpace=wrap;html=1;align=center;fontStyle=0" vertex="1" parent="1">
          <mxGeometry x="213.5" y="1430" width="40" height="40" as="geometry" />
        </mxCell>
        <mxCell id="3QXeZZZweoPhM5f8Nh8O-165" value="복수&lt;div&gt;전공&lt;/div&gt;" style="ellipse;whiteSpace=wrap;html=1;align=center;fontStyle=0" vertex="1" parent="1">
          <mxGeometry x="270" y="1430" width="40" height="40" as="geometry" />
        </mxCell>
        <mxCell id="3QXeZZZweoPhM5f8Nh8O-166" value="교양" style="ellipse;whiteSpace=wrap;html=1;align=center;fontStyle=0" vertex="1" parent="1">
          <mxGeometry x="325" y="1430" width="40" height="40" as="geometry" />
        </mxCell>
        <mxCell id="3QXeZZZweoPhM5f8Nh8O-167" value="담당" style="shape=rhombus;perimeter=rhombusPerimeter;whiteSpace=wrap;html=1;align=center;" vertex="1" parent="1">
          <mxGeometry x="477.5" y="1110" width="65" height="60" as="geometry" />
        </mxCell>
        <mxCell id="3QXeZZZweoPhM5f8Nh8O-168" value="" style="endArrow=none;html=1;rounded=0;exitX=1;exitY=0.5;exitDx=0;exitDy=0;entryX=0;entryY=0.5;entryDx=0;entryDy=0;" edge="1" parent="1" source="3QXeZZZweoPhM5f8Nh8O-109" target="3QXeZZZweoPhM5f8Nh8O-167">
          <mxGeometry width="50" height="50" relative="1" as="geometry">
            <mxPoint x="390" y="1180" as="sourcePoint" />
            <mxPoint x="529" y="1180" as="targetPoint" />
          </mxGeometry>
        </mxCell>
        <mxCell id="3QXeZZZweoPhM5f8Nh8O-169" value="" style="endArrow=none;html=1;rounded=0;exitX=1;exitY=0.5;exitDx=0;exitDy=0;entryX=0;entryY=0.5;entryDx=0;entryDy=0;" edge="1" parent="1" source="3QXeZZZweoPhM5f8Nh8O-167" target="3QXeZZZweoPhM5f8Nh8O-112">
          <mxGeometry width="50" height="50" relative="1" as="geometry">
            <mxPoint x="550" y="1180" as="sourcePoint" />
            <mxPoint x="687" y="1180" as="targetPoint" />
          </mxGeometry>
        </mxCell>
        <mxCell id="3QXeZZZweoPhM5f8Nh8O-170" value="1" style="text;html=1;align=center;verticalAlign=middle;resizable=0;points=[];autosize=1;strokeColor=none;fillColor=none;" vertex="1" parent="1">
          <mxGeometry x="338.5" y="1108" width="30" height="30" as="geometry" />
        </mxCell>
        <mxCell id="3QXeZZZweoPhM5f8Nh8O-171" value="1" style="text;html=1;align=center;verticalAlign=middle;resizable=0;points=[];autosize=1;strokeColor=none;fillColor=none;" vertex="1" parent="1">
          <mxGeometry x="447.5" y="1108" width="30" height="30" as="geometry" />
        </mxCell>
        <mxCell id="3QXeZZZweoPhM5f8Nh8O-172" value="1" style="text;html=1;align=center;verticalAlign=middle;resizable=0;points=[];autosize=1;strokeColor=none;fillColor=none;" vertex="1" parent="1">
          <mxGeometry x="650" y="1108" width="30" height="30" as="geometry" />
        </mxCell>
        <mxCell id="3QXeZZZweoPhM5f8Nh8O-173" value="N" style="text;html=1;align=center;verticalAlign=middle;resizable=0;points=[];autosize=1;strokeColor=none;fillColor=none;" vertex="1" parent="1">
          <mxGeometry x="542.5" y="1108" width="30" height="30" as="geometry" />
        </mxCell>
        <mxCell id="3QXeZZZweoPhM5f8Nh8O-175" value="구매" style="shape=rhombus;perimeter=rhombusPerimeter;whiteSpace=wrap;html=1;align=center;" vertex="1" parent="1">
          <mxGeometry x="480" y="790" width="65" height="60" as="geometry" />
        </mxCell>
        <mxCell id="3QXeZZZweoPhM5f8Nh8O-176" value="" style="endArrow=none;html=1;rounded=0;exitX=1;exitY=0.5;exitDx=0;exitDy=0;entryX=0;entryY=0.5;entryDx=0;entryDy=0;" edge="1" parent="1" source="3QXeZZZweoPhM5f8Nh8O-89" target="3QXeZZZweoPhM5f8Nh8O-175">
          <mxGeometry width="50" height="50" relative="1" as="geometry">
            <mxPoint x="361.5" y="769.66" as="sourcePoint" />
            <mxPoint x="500.5" y="769.66" as="targetPoint" />
          </mxGeometry>
        </mxCell>
        <mxCell id="3QXeZZZweoPhM5f8Nh8O-177" value="" style="endArrow=none;html=1;rounded=0;exitX=1;exitY=0.5;exitDx=0;exitDy=0;entryX=0;entryY=0.5;entryDx=0;entryDy=0;" edge="1" parent="1" source="3QXeZZZweoPhM5f8Nh8O-175" target="3QXeZZZweoPhM5f8Nh8O-90">
          <mxGeometry width="50" height="50" relative="1" as="geometry">
            <mxPoint x="620" y="730" as="sourcePoint" />
            <mxPoint x="761" y="730" as="targetPoint" />
          </mxGeometry>
        </mxCell>
        <mxCell id="3QXeZZZweoPhM5f8Nh8O-178" value="1" style="text;html=1;align=center;verticalAlign=middle;resizable=0;points=[];autosize=1;strokeColor=none;fillColor=none;" vertex="1" parent="1">
          <mxGeometry x="340" y="790" width="30" height="30" as="geometry" />
        </mxCell>
        <mxCell id="3QXeZZZweoPhM5f8Nh8O-179" value="N" style="text;html=1;align=center;verticalAlign=middle;resizable=0;points=[];autosize=1;strokeColor=none;fillColor=none;" vertex="1" parent="1">
          <mxGeometry x="450" y="790" width="30" height="30" as="geometry" />
        </mxCell>
        <mxCell id="3QXeZZZweoPhM5f8Nh8O-180" value="N" style="text;html=1;align=center;verticalAlign=middle;resizable=0;points=[];autosize=1;strokeColor=none;fillColor=none;" vertex="1" parent="1">
          <mxGeometry x="650" y="790" width="30" height="30" as="geometry" />
        </mxCell>
        <mxCell id="3QXeZZZweoPhM5f8Nh8O-181" value="1" style="text;html=1;align=center;verticalAlign=middle;resizable=0;points=[];autosize=1;strokeColor=none;fillColor=none;" vertex="1" parent="1">
          <mxGeometry x="545" y="790" width="30" height="30" as="geometry" />
        </mxCell>
        <mxCell id="3QXeZZZweoPhM5f8Nh8O-183" value="1 : N&lt;div&gt;&lt;font style=&quot;font-size: 8px;&quot;&gt;직원이 여러 부서 X&lt;/font&gt;&lt;/div&gt;&lt;div&gt;&lt;font style=&quot;font-size: 8px;&quot;&gt;부서가 여러직원 OK&lt;/font&gt;&lt;/div&gt;" style="text;html=1;align=center;verticalAlign=middle;resizable=0;points=[];autosize=1;strokeColor=none;fillColor=none;" vertex="1" parent="1">
          <mxGeometry x="465" y="1170" width="90" height="60" as="geometry" />
        </mxCell>
        <mxCell id="3QXeZZZweoPhM5f8Nh8O-184" value="ID" style="ellipse;whiteSpace=wrap;html=1;align=center;fontStyle=0" vertex="1" parent="1">
          <mxGeometry x="272.5" y="1171" width="40" height="40" as="geometry" />
        </mxCell>
        <mxCell id="3QXeZZZweoPhM5f8Nh8O-185" value="이름" style="ellipse;whiteSpace=wrap;html=1;align=center;fontStyle=0" vertex="1" parent="1">
          <mxGeometry x="317.5" y="1170" width="40" height="40" as="geometry" />
        </mxCell>
        <mxCell id="3QXeZZZweoPhM5f8Nh8O-188" value="&lt;u&gt;부서ID&lt;/u&gt;&lt;div&gt;&lt;u&gt;(PK)&lt;/u&gt;&lt;/div&gt;" style="ellipse;whiteSpace=wrap;html=1;align=center;fontStyle=0" vertex="1" parent="1">
          <mxGeometry x="660" y="1169" width="40" height="40" as="geometry" />
        </mxCell>
        <mxCell id="3QXeZZZweoPhM5f8Nh8O-189" value="역활" style="ellipse;whiteSpace=wrap;html=1;align=center;fontStyle=0" vertex="1" parent="1">
          <mxGeometry x="710" y="1169" width="40" height="40" as="geometry" />
        </mxCell>
        <mxCell id="3QXeZZZweoPhM5f8Nh8O-190" value="번호" style="ellipse;whiteSpace=wrap;html=1;align=center;fontStyle=0" vertex="1" parent="1">
          <mxGeometry x="760" y="1169" width="40" height="40" as="geometry" />
        </mxCell>
        <mxCell id="3QXeZZZweoPhM5f8Nh8O-191" value="부서ID&lt;div&gt;(FK)&lt;/div&gt;" style="ellipse;whiteSpace=wrap;html=1;align=center;fontStyle=0" vertex="1" parent="1">
          <mxGeometry x="222.5" y="1171" width="40" height="40" as="geometry" />
        </mxCell>
        <mxCell id="3QXeZZZweoPhM5f8Nh8O-193" value="고객&lt;div&gt;ID&lt;/div&gt;" style="ellipse;whiteSpace=wrap;html=1;align=center;fontStyle=0" vertex="1" parent="1">
          <mxGeometry x="435" y="1020" width="40" height="40" as="geometry" />
        </mxCell>
        <mxCell id="3QXeZZZweoPhM5f8Nh8O-194" value="제품ID" style="ellipse;whiteSpace=wrap;html=1;align=center;fontStyle=0" vertex="1" parent="1">
          <mxGeometry x="482.5" y="1020" width="40" height="40" as="geometry" />
        </mxCell>
        <mxCell id="3QXeZZZweoPhM5f8Nh8O-195" value="&lt;u&gt;구매&lt;/u&gt;&lt;div&gt;&lt;u&gt;ID(pk)&lt;/u&gt;&lt;/div&gt;" style="ellipse;whiteSpace=wrap;html=1;align=center;fontStyle=0" vertex="1" parent="1">
          <mxGeometry x="532.5" y="1020" width="40" height="40" as="geometry" />
        </mxCell>
        <mxCell id="3QXeZZZweoPhM5f8Nh8O-197" value="임시저장&lt;div&gt;(장바구니)&lt;/div&gt;" style="shape=rhombus;perimeter=rhombusPerimeter;whiteSpace=wrap;html=1;align=center;" vertex="1" parent="1">
          <mxGeometry x="1154" y="670" width="65" height="60" as="geometry" />
        </mxCell>
        <mxCell id="3QXeZZZweoPhM5f8Nh8O-198" value="구매하기" style="shape=rhombus;perimeter=rhombusPerimeter;whiteSpace=wrap;html=1;align=center;" vertex="1" parent="1">
          <mxGeometry x="1154" y="910" width="65" height="60" as="geometry" />
        </mxCell>
        <mxCell id="3QXeZZZweoPhM5f8Nh8O-199" value="" style="endArrow=none;html=1;rounded=0;exitX=1;exitY=0.5;exitDx=0;exitDy=0;entryX=0;entryY=0.5;entryDx=0;entryDy=0;" edge="1" parent="1" source="3QXeZZZweoPhM5f8Nh8O-117" target="3QXeZZZweoPhM5f8Nh8O-197">
          <mxGeometry width="50" height="50" relative="1" as="geometry">
            <mxPoint x="1010" y="690" as="sourcePoint" />
            <mxPoint x="1145" y="690" as="targetPoint" />
          </mxGeometry>
        </mxCell>
        <mxCell id="3QXeZZZweoPhM5f8Nh8O-200" value="" style="endArrow=none;html=1;rounded=0;exitX=1;exitY=0.5;exitDx=0;exitDy=0;entryX=0;entryY=0.5;entryDx=0;entryDy=0;" edge="1" parent="1" source="3QXeZZZweoPhM5f8Nh8O-197" target="3QXeZZZweoPhM5f8Nh8O-118">
          <mxGeometry width="50" height="50" relative="1" as="geometry">
            <mxPoint x="1340" y="800" as="sourcePoint" />
            <mxPoint x="1484" y="680" as="targetPoint" />
          </mxGeometry>
        </mxCell>
        <mxCell id="3QXeZZZweoPhM5f8Nh8O-201" value="" style="endArrow=none;html=1;rounded=0;exitX=0;exitY=0.5;exitDx=0;exitDy=0;entryX=1;entryY=0.5;entryDx=0;entryDy=0;" edge="1" parent="1" source="3QXeZZZweoPhM5f8Nh8O-118" target="3QXeZZZweoPhM5f8Nh8O-198">
          <mxGeometry width="50" height="50" relative="1" as="geometry">
            <mxPoint x="1290" y="900" as="sourcePoint" />
            <mxPoint x="1423" y="1020" as="targetPoint" />
          </mxGeometry>
        </mxCell>
        <mxCell id="3QXeZZZweoPhM5f8Nh8O-202" value="" style="endArrow=none;html=1;rounded=0;exitX=1;exitY=0.5;exitDx=0;exitDy=0;entryX=0;entryY=0.5;entryDx=0;entryDy=0;" edge="1" parent="1" source="3QXeZZZweoPhM5f8Nh8O-117" target="3QXeZZZweoPhM5f8Nh8O-198">
          <mxGeometry width="50" height="50" relative="1" as="geometry">
            <mxPoint x="1030" y="890" as="sourcePoint" />
            <mxPoint x="1163" y="1010" as="targetPoint" />
          </mxGeometry>
        </mxCell>
        <mxCell id="3QXeZZZweoPhM5f8Nh8O-203" value="N" style="text;html=1;align=center;verticalAlign=middle;resizable=0;points=[];autosize=1;strokeColor=none;fillColor=none;" vertex="1" parent="1">
          <mxGeometry x="1115" y="648" width="30" height="30" as="geometry" />
        </mxCell>
        <mxCell id="3QXeZZZweoPhM5f8Nh8O-204" value="N" style="text;html=1;align=center;verticalAlign=middle;resizable=0;points=[];autosize=1;strokeColor=none;fillColor=none;" vertex="1" parent="1">
          <mxGeometry x="1225" y="668" width="30" height="30" as="geometry" />
        </mxCell>
        <mxCell id="3QXeZZZweoPhM5f8Nh8O-205" value="N" style="text;html=1;align=center;verticalAlign=middle;resizable=0;points=[];autosize=1;strokeColor=none;fillColor=none;" vertex="1" parent="1">
          <mxGeometry x="1215" y="958" width="30" height="30" as="geometry" />
        </mxCell>
        <mxCell id="3QXeZZZweoPhM5f8Nh8O-206" value="N" style="text;html=1;align=center;verticalAlign=middle;resizable=0;points=[];autosize=1;strokeColor=none;fillColor=none;" vertex="1" parent="1">
          <mxGeometry x="1125" y="958" width="30" height="30" as="geometry" />
        </mxCell>
        <mxCell id="3QXeZZZweoPhM5f8Nh8O-207" value="1" style="text;html=1;align=center;verticalAlign=middle;resizable=0;points=[];autosize=1;strokeColor=none;fillColor=none;" vertex="1" parent="1">
          <mxGeometry x="1005" y="838" width="30" height="30" as="geometry" />
        </mxCell>
        <mxCell id="3QXeZZZweoPhM5f8Nh8O-208" value="1" style="text;html=1;align=center;verticalAlign=middle;resizable=0;points=[];autosize=1;strokeColor=none;fillColor=none;" vertex="1" parent="1">
          <mxGeometry x="1005" y="758" width="30" height="30" as="geometry" />
        </mxCell>
        <mxCell id="3QXeZZZweoPhM5f8Nh8O-209" value="1" style="text;html=1;align=center;verticalAlign=middle;resizable=0;points=[];autosize=1;strokeColor=none;fillColor=none;" vertex="1" parent="1">
          <mxGeometry x="1321.5" y="840" width="30" height="30" as="geometry" />
        </mxCell>
        <mxCell id="3QXeZZZweoPhM5f8Nh8O-210" value="1" style="text;html=1;align=center;verticalAlign=middle;resizable=0;points=[];autosize=1;strokeColor=none;fillColor=none;" vertex="1" parent="1">
          <mxGeometry x="1321.5" y="770" width="30" height="30" as="geometry" />
        </mxCell>
        <mxCell id="3QXeZZZweoPhM5f8Nh8O-211" value="소속" style="shape=rhombus;perimeter=rhombusPerimeter;whiteSpace=wrap;html=1;align=center;" vertex="1" parent="1">
          <mxGeometry x="1154" y="1111" width="65" height="60" as="geometry" />
        </mxCell>
        <mxCell id="3QXeZZZweoPhM5f8Nh8O-212" value="" style="endArrow=none;html=1;rounded=0;exitX=1;exitY=0.5;exitDx=0;exitDy=0;entryX=0;entryY=0.5;entryDx=0;entryDy=0;" edge="1" parent="1" source="3QXeZZZweoPhM5f8Nh8O-137" target="3QXeZZZweoPhM5f8Nh8O-211">
          <mxGeometry width="50" height="50" relative="1" as="geometry">
            <mxPoint x="1040" y="1070" as="sourcePoint" />
            <mxPoint x="1177" y="1070" as="targetPoint" />
          </mxGeometry>
        </mxCell>
        <mxCell id="3QXeZZZweoPhM5f8Nh8O-213" value="" style="endArrow=none;html=1;rounded=0;exitX=1;exitY=0.5;exitDx=0;exitDy=0;entryX=0;entryY=0.5;entryDx=0;entryDy=0;" edge="1" parent="1" source="3QXeZZZweoPhM5f8Nh8O-211" target="3QXeZZZweoPhM5f8Nh8O-140">
          <mxGeometry width="50" height="50" relative="1" as="geometry">
            <mxPoint x="1320" y="1050" as="sourcePoint" />
            <mxPoint x="1457" y="1050" as="targetPoint" />
          </mxGeometry>
        </mxCell>
        <mxCell id="3QXeZZZweoPhM5f8Nh8O-214" value="1" style="text;html=1;align=center;verticalAlign=middle;resizable=0;points=[];autosize=1;strokeColor=none;fillColor=none;" vertex="1" parent="1">
          <mxGeometry x="1005" y="1098" width="30" height="30" as="geometry" />
        </mxCell>
        <mxCell id="3QXeZZZweoPhM5f8Nh8O-215" value="1" style="text;html=1;align=center;verticalAlign=middle;resizable=0;points=[];autosize=1;strokeColor=none;fillColor=none;" vertex="1" parent="1">
          <mxGeometry x="1105" y="1108" width="30" height="30" as="geometry" />
        </mxCell>
        <mxCell id="3QXeZZZweoPhM5f8Nh8O-216" value="N" style="text;html=1;align=center;verticalAlign=middle;resizable=0;points=[];autosize=1;strokeColor=none;fillColor=none;" vertex="1" parent="1">
          <mxGeometry x="1215" y="1098" width="30" height="30" as="geometry" />
        </mxCell>
        <mxCell id="3QXeZZZweoPhM5f8Nh8O-217" value="1" style="text;html=1;align=center;verticalAlign=middle;resizable=0;points=[];autosize=1;strokeColor=none;fillColor=none;" vertex="1" parent="1">
          <mxGeometry x="1315" y="1098" width="30" height="30" as="geometry" />
        </mxCell>
        <mxCell id="3QXeZZZweoPhM5f8Nh8O-218" value="연결" style="shape=rhombus;perimeter=rhombusPerimeter;whiteSpace=wrap;html=1;align=center;" vertex="1" parent="1">
          <mxGeometry x="1154" y="1230" width="65" height="60" as="geometry" />
        </mxCell>
        <mxCell id="3QXeZZZweoPhM5f8Nh8O-219" value="1" style="text;html=1;align=center;verticalAlign=middle;resizable=0;points=[];autosize=1;strokeColor=none;fillColor=none;" vertex="1" parent="1">
          <mxGeometry x="1015" y="1208" width="30" height="30" as="geometry" />
        </mxCell>
        <mxCell id="3QXeZZZweoPhM5f8Nh8O-220" value="N" style="text;html=1;align=center;verticalAlign=middle;resizable=0;points=[];autosize=1;strokeColor=none;fillColor=none;" vertex="1" parent="1">
          <mxGeometry x="1115" y="1218" width="30" height="30" as="geometry" />
        </mxCell>
        <mxCell id="3QXeZZZweoPhM5f8Nh8O-221" value="1" style="text;html=1;align=center;verticalAlign=middle;resizable=0;points=[];autosize=1;strokeColor=none;fillColor=none;" vertex="1" parent="1">
          <mxGeometry x="1205" y="1208" width="30" height="30" as="geometry" />
        </mxCell>
        <mxCell id="3QXeZZZweoPhM5f8Nh8O-222" value="1" style="text;html=1;align=center;verticalAlign=middle;resizable=0;points=[];autosize=1;strokeColor=none;fillColor=none;" vertex="1" parent="1">
          <mxGeometry x="1325" y="1208" width="30" height="30" as="geometry" />
        </mxCell>
        <mxCell id="3QXeZZZweoPhM5f8Nh8O-223" value="&lt;u&gt;강의ID&lt;/u&gt;&lt;div&gt;&lt;u&gt;(PK)&lt;/u&gt;&lt;/div&gt;" style="ellipse;whiteSpace=wrap;html=1;align=center;fontStyle=0" vertex="1" parent="1">
          <mxGeometry x="1535" y="1844" width="40" height="40" as="geometry" />
        </mxCell>
        <mxCell id="3QXeZZZweoPhM5f8Nh8O-224" value="강의명" style="ellipse;whiteSpace=wrap;html=1;align=center;fontStyle=0" vertex="1" parent="1">
          <mxGeometry x="1575" y="1844" width="40" height="40" as="geometry" />
        </mxCell>
        <mxCell id="3QXeZZZweoPhM5f8Nh8O-226" value="시작&lt;div&gt;시간&lt;/div&gt;&lt;div&gt;(PK)&lt;/div&gt;" style="ellipse;whiteSpace=wrap;html=1;align=center;fontStyle=0" vertex="1" parent="1">
          <mxGeometry x="1360" y="1880" width="40" height="40" as="geometry" />
        </mxCell>
        <mxCell id="3QXeZZZweoPhM5f8Nh8O-227" value="종료&lt;br&gt;&lt;div&gt;시간&lt;/div&gt;&lt;div&gt;(PK)&lt;/div&gt;" style="ellipse;whiteSpace=wrap;html=1;align=center;fontStyle=0" vertex="1" parent="1">
          <mxGeometry x="1400" y="1880" width="40" height="40" as="geometry" />
        </mxCell>
        <mxCell id="3QXeZZZweoPhM5f8Nh8O-232" value="학생ID&lt;div&gt;(PK)&lt;/div&gt;" style="ellipse;whiteSpace=wrap;html=1;align=center;fontStyle=0" vertex="1" parent="1">
          <mxGeometry x="1995" y="1850" width="40" height="40" as="geometry" />
        </mxCell>
        <mxCell id="3QXeZZZweoPhM5f8Nh8O-233" value="이름" style="ellipse;whiteSpace=wrap;html=1;align=center;fontStyle=0" vertex="1" parent="1">
          <mxGeometry x="2045" y="1850" width="40" height="40" as="geometry" />
        </mxCell>
        <mxCell id="3QXeZZZweoPhM5f8Nh8O-234" value="나이" style="ellipse;whiteSpace=wrap;html=1;align=center;fontStyle=0" vertex="1" parent="1">
          <mxGeometry x="2095" y="1850" width="40" height="40" as="geometry" />
        </mxCell>
        <mxCell id="3QXeZZZweoPhM5f8Nh8O-235" value="학년" style="ellipse;whiteSpace=wrap;html=1;align=center;fontStyle=0" vertex="1" parent="1">
          <mxGeometry x="2155" y="1850" width="40" height="40" as="geometry" />
        </mxCell>
        <mxCell id="3QXeZZZweoPhM5f8Nh8O-236" value="수강&lt;div&gt;신청&lt;/div&gt;" style="shape=rhombus;perimeter=rhombusPerimeter;whiteSpace=wrap;html=1;align=center;" vertex="1" parent="1">
          <mxGeometry x="1805" y="1780" width="65" height="60" as="geometry" />
        </mxCell>
        <mxCell id="3QXeZZZweoPhM5f8Nh8O-237" value="수강ID&lt;div&gt;(PK)&lt;/div&gt;" style="ellipse;whiteSpace=wrap;html=1;align=center;fontStyle=0" vertex="1" parent="1">
          <mxGeometry x="1794" y="1860" width="40" height="40" as="geometry" />
        </mxCell>
        <mxCell id="3QXeZZZweoPhM5f8Nh8O-239" value="&lt;u&gt;강의ID&lt;/u&gt;&lt;div&gt;&lt;u&gt;(FK)&lt;/u&gt;&lt;/div&gt;" style="ellipse;whiteSpace=wrap;html=1;align=center;fontStyle=0" vertex="1" parent="1">
          <mxGeometry x="1834" y="1860" width="40" height="40" as="geometry" />
        </mxCell>
        <mxCell id="3QXeZZZweoPhM5f8Nh8O-240" value="학생ID&lt;div&gt;(FK)&lt;/div&gt;" style="ellipse;whiteSpace=wrap;html=1;align=center;fontStyle=0" vertex="1" parent="1">
          <mxGeometry x="1874" y="1860" width="40" height="40" as="geometry" />
        </mxCell>
        <mxCell id="3QXeZZZweoPhM5f8Nh8O-242" value="결제&lt;div&gt;여부&lt;/div&gt;" style="ellipse;whiteSpace=wrap;html=1;align=center;fontStyle=0" vertex="1" parent="1">
          <mxGeometry x="1810" y="1900" width="40" height="40" as="geometry" />
        </mxCell>
        <mxCell id="3QXeZZZweoPhM5f8Nh8O-243" value="신청일" style="ellipse;whiteSpace=wrap;html=1;align=center;fontStyle=0" vertex="1" parent="1">
          <mxGeometry x="1856" y="1900" width="40" height="40" as="geometry" />
        </mxCell>
        <mxCell id="3QXeZZZweoPhM5f8Nh8O-244" value="" style="endArrow=none;html=1;rounded=0;exitX=1;exitY=0.5;exitDx=0;exitDy=0;entryX=0;entryY=0.5;entryDx=0;entryDy=0;" edge="1" parent="1" source="3QXeZZZweoPhM5f8Nh8O-218" target="3QXeZZZweoPhM5f8Nh8O-141">
          <mxGeometry width="50" height="50" relative="1" as="geometry">
            <mxPoint x="1270" y="1201" as="sourcePoint" />
            <mxPoint x="1403" y="1200" as="targetPoint" />
          </mxGeometry>
        </mxCell>
        <mxCell id="3QXeZZZweoPhM5f8Nh8O-245" value="" style="endArrow=none;html=1;rounded=0;exitX=1;exitY=0.5;exitDx=0;exitDy=0;entryX=0;entryY=0.5;entryDx=0;entryDy=0;" edge="1" parent="1" source="3QXeZZZweoPhM5f8Nh8O-138" target="3QXeZZZweoPhM5f8Nh8O-218">
          <mxGeometry width="50" height="50" relative="1" as="geometry">
            <mxPoint x="1090" y="1191" as="sourcePoint" />
            <mxPoint x="1223" y="1190" as="targetPoint" />
          </mxGeometry>
        </mxCell>
        <mxCell id="3QXeZZZweoPhM5f8Nh8O-246" value="수업&lt;br&gt;&lt;div&gt;진행&lt;/div&gt;" style="shape=rhombus;perimeter=rhombusPerimeter;whiteSpace=wrap;html=1;align=center;" vertex="1" parent="1">
          <mxGeometry x="1550" y="1638" width="65" height="60" as="geometry" />
        </mxCell>
        <mxCell id="3QXeZZZweoPhM5f8Nh8O-247" value="강사" style="whiteSpace=wrap;html=1;align=center;" vertex="1" parent="1">
          <mxGeometry x="1532.25" y="1520" width="100" height="40" as="geometry" />
        </mxCell>
        <mxCell id="3QXeZZZweoPhM5f8Nh8O-248" value="" style="endArrow=none;html=1;rounded=0;exitX=1;exitY=0.5;exitDx=0;exitDy=0;entryX=0;entryY=0.5;entryDx=0;entryDy=0;" edge="1" parent="1" source="3QXeZZZweoPhM5f8Nh8O-236" target="3QXeZZZweoPhM5f8Nh8O-142">
          <mxGeometry width="50" height="50" relative="1" as="geometry">
            <mxPoint x="2015" y="1690" as="sourcePoint" />
            <mxPoint x="2153" y="1690" as="targetPoint" />
          </mxGeometry>
        </mxCell>
        <mxCell id="3QXeZZZweoPhM5f8Nh8O-249" value="" style="endArrow=none;html=1;rounded=0;exitX=1;exitY=0.5;exitDx=0;exitDy=0;entryX=0;entryY=0.5;entryDx=0;entryDy=0;" edge="1" parent="1" source="3QXeZZZweoPhM5f8Nh8O-139" target="3QXeZZZweoPhM5f8Nh8O-236">
          <mxGeometry width="50" height="50" relative="1" as="geometry">
            <mxPoint x="1895" y="1690" as="sourcePoint" />
            <mxPoint x="2033" y="1690" as="targetPoint" />
          </mxGeometry>
        </mxCell>
        <mxCell id="3QXeZZZweoPhM5f8Nh8O-250" value="1" style="text;html=1;align=center;verticalAlign=middle;resizable=0;points=[];autosize=1;strokeColor=none;fillColor=none;" vertex="1" parent="1">
          <mxGeometry x="1630" y="1778" width="30" height="30" as="geometry" />
        </mxCell>
        <mxCell id="3QXeZZZweoPhM5f8Nh8O-251" value="N" style="text;html=1;align=center;verticalAlign=middle;resizable=0;points=[];autosize=1;strokeColor=none;fillColor=none;" vertex="1" parent="1">
          <mxGeometry x="1780" y="1768" width="30" height="30" as="geometry" />
        </mxCell>
        <mxCell id="3QXeZZZweoPhM5f8Nh8O-252" value="N" style="text;html=1;align=center;verticalAlign=middle;resizable=0;points=[];autosize=1;strokeColor=none;fillColor=none;" vertex="1" parent="1">
          <mxGeometry x="1860" y="1768" width="30" height="30" as="geometry" />
        </mxCell>
        <mxCell id="3QXeZZZweoPhM5f8Nh8O-253" value="1" style="text;html=1;align=center;verticalAlign=middle;resizable=0;points=[];autosize=1;strokeColor=none;fillColor=none;" vertex="1" parent="1">
          <mxGeometry x="2000" y="1768" width="30" height="30" as="geometry" />
        </mxCell>
        <mxCell id="3QXeZZZweoPhM5f8Nh8O-254" value="&lt;u&gt;강사D&lt;/u&gt;&lt;div&gt;&lt;u&gt;(PK)&lt;/u&gt;&lt;/div&gt;" style="ellipse;whiteSpace=wrap;html=1;align=center;fontStyle=0" vertex="1" parent="1">
          <mxGeometry x="1457.5" y="1470" width="40" height="40" as="geometry" />
        </mxCell>
        <mxCell id="3QXeZZZweoPhM5f8Nh8O-255" value="강사명" style="ellipse;whiteSpace=wrap;html=1;align=center;fontStyle=0" vertex="1" parent="1">
          <mxGeometry x="1501.5" y="1470" width="40" height="40" as="geometry" />
        </mxCell>
        <mxCell id="3QXeZZZweoPhM5f8Nh8O-256" value="전공" style="ellipse;whiteSpace=wrap;html=1;align=center;fontStyle=0" vertex="1" parent="1">
          <mxGeometry x="1542.5" y="1470" width="40" height="40" as="geometry" />
        </mxCell>
        <mxCell id="3QXeZZZweoPhM5f8Nh8O-257" value="수업가능범주" style="ellipse;whiteSpace=wrap;html=1;align=center;fontStyle=0" vertex="1" parent="1">
          <mxGeometry x="1587.5" y="1470" width="40" height="40" as="geometry" />
        </mxCell>
        <mxCell id="3QXeZZZweoPhM5f8Nh8O-258" value="연락처" style="ellipse;whiteSpace=wrap;html=1;align=center;fontStyle=0" vertex="1" parent="1">
          <mxGeometry x="1632.5" y="1470" width="40" height="40" as="geometry" />
        </mxCell>
        <mxCell id="3QXeZZZweoPhM5f8Nh8O-259" value="이메일" style="ellipse;whiteSpace=wrap;html=1;align=center;fontStyle=0" vertex="1" parent="1">
          <mxGeometry x="1680" y="1470" width="40" height="40" as="geometry" />
        </mxCell>
        <mxCell id="3QXeZZZweoPhM5f8Nh8O-260" value="1" style="text;html=1;align=center;verticalAlign=middle;resizable=0;points=[];autosize=1;strokeColor=none;fillColor=none;" vertex="1" parent="1">
          <mxGeometry x="1555" y="1560" width="30" height="30" as="geometry" />
        </mxCell>
        <mxCell id="3QXeZZZweoPhM5f8Nh8O-261" value="N" style="text;html=1;align=center;verticalAlign=middle;resizable=0;points=[];autosize=1;strokeColor=none;fillColor=none;" vertex="1" parent="1">
          <mxGeometry x="1552.5" y="1608" width="30" height="30" as="geometry" />
        </mxCell>
        <mxCell id="3QXeZZZweoPhM5f8Nh8O-262" value="" style="endArrow=none;html=1;rounded=0;exitX=0.5;exitY=1;exitDx=0;exitDy=0;entryX=0.5;entryY=0;entryDx=0;entryDy=0;" edge="1" parent="1" source="3QXeZZZweoPhM5f8Nh8O-247" target="3QXeZZZweoPhM5f8Nh8O-246">
          <mxGeometry width="50" height="50" relative="1" as="geometry">
            <mxPoint x="1840" y="1590" as="sourcePoint" />
            <mxPoint x="1978" y="1590" as="targetPoint" />
          </mxGeometry>
        </mxCell>
        <mxCell id="3QXeZZZweoPhM5f8Nh8O-263" value="N" style="text;html=1;align=center;verticalAlign=middle;resizable=0;points=[];autosize=1;strokeColor=none;fillColor=none;" vertex="1" parent="1">
          <mxGeometry x="1550" y="1698" width="30" height="30" as="geometry" />
        </mxCell>
        <mxCell id="3QXeZZZweoPhM5f8Nh8O-264" value="1" style="text;html=1;align=center;verticalAlign=middle;resizable=0;points=[];autosize=1;strokeColor=none;fillColor=none;" vertex="1" parent="1">
          <mxGeometry x="1552.5" y="1760" width="30" height="30" as="geometry" />
        </mxCell>
        <mxCell id="3QXeZZZweoPhM5f8Nh8O-265" value="" style="endArrow=none;html=1;rounded=0;exitX=0.5;exitY=1;exitDx=0;exitDy=0;entryX=0.5;entryY=0;entryDx=0;entryDy=0;" edge="1" parent="1" source="3QXeZZZweoPhM5f8Nh8O-246" target="3QXeZZZweoPhM5f8Nh8O-139">
          <mxGeometry width="50" height="50" relative="1" as="geometry">
            <mxPoint x="1665" y="1690" as="sourcePoint" />
            <mxPoint x="1668" y="1730" as="targetPoint" />
          </mxGeometry>
        </mxCell>
        <mxCell id="3QXeZZZweoPhM5f8Nh8O-266" value="진행&lt;div&gt;여부&lt;/div&gt;" style="ellipse;whiteSpace=wrap;html=1;align=center;fontStyle=0" vertex="1" parent="1">
          <mxGeometry x="1631.5" y="1588" width="40" height="40" as="geometry" />
        </mxCell>
        <mxCell id="3QXeZZZweoPhM5f8Nh8O-267" value="강사ID&lt;div&gt;(FK)&lt;/div&gt;" style="ellipse;whiteSpace=wrap;html=1;align=center;fontStyle=0" vertex="1" parent="1">
          <mxGeometry x="1631.5" y="1628" width="40" height="40" as="geometry" />
        </mxCell>
        <mxCell id="3QXeZZZweoPhM5f8Nh8O-268" value="강의ID&lt;div&gt;(FK)&lt;/div&gt;" style="ellipse;whiteSpace=wrap;html=1;align=center;fontStyle=0" vertex="1" parent="1">
          <mxGeometry x="1631.5" y="1666" width="40" height="40" as="geometry" />
        </mxCell>
        <mxCell id="3QXeZZZweoPhM5f8Nh8O-269" value="진행ID&lt;div&gt;(PK)&lt;/div&gt;" style="ellipse;whiteSpace=wrap;html=1;align=center;fontStyle=0" vertex="1" parent="1">
          <mxGeometry x="1631.5" y="1708" width="40" height="40" as="geometry" />
        </mxCell>
        <mxCell id="3QXeZZZweoPhM5f8Nh8O-270" value="클래스(강의장)" style="whiteSpace=wrap;html=1;align=center;" vertex="1" parent="1">
          <mxGeometry x="1175" y="1790" width="100" height="40" as="geometry" />
        </mxCell>
        <mxCell id="3QXeZZZweoPhM5f8Nh8O-271" value="강의장명" style="ellipse;whiteSpace=wrap;html=1;align=center;fontStyle=0" vertex="1" parent="1">
          <mxGeometry x="1155" y="1850" width="40" height="40" as="geometry" />
        </mxCell>
        <mxCell id="3QXeZZZweoPhM5f8Nh8O-272" value="수용&lt;div&gt;인원&lt;/div&gt;" style="ellipse;whiteSpace=wrap;html=1;align=center;fontStyle=0" vertex="1" parent="1">
          <mxGeometry x="1195" y="1850" width="40" height="40" as="geometry" />
        </mxCell>
        <mxCell id="3QXeZZZweoPhM5f8Nh8O-273" value="면적" style="ellipse;whiteSpace=wrap;html=1;align=center;fontStyle=0" vertex="1" parent="1">
          <mxGeometry x="1235" y="1850" width="40" height="40" as="geometry" />
        </mxCell>
        <mxCell id="3QXeZZZweoPhM5f8Nh8O-274" value="대피로" style="ellipse;whiteSpace=wrap;html=1;align=center;fontStyle=0" vertex="1" parent="1">
          <mxGeometry x="1275" y="1850" width="40" height="40" as="geometry" />
        </mxCell>
        <mxCell id="3QXeZZZweoPhM5f8Nh8O-275" value="강의장&lt;div&gt;ID(PK)&lt;/div&gt;" style="ellipse;whiteSpace=wrap;html=1;align=center;fontStyle=0" vertex="1" parent="1">
          <mxGeometry x="1115" y="1850" width="40" height="40" as="geometry" />
        </mxCell>
        <mxCell id="3QXeZZZweoPhM5f8Nh8O-276" value="" style="endArrow=none;html=1;rounded=0;exitX=1;exitY=0.5;exitDx=0;exitDy=0;entryX=0;entryY=0.5;entryDx=0;entryDy=0;" edge="1" parent="1" source="3QXeZZZweoPhM5f8Nh8O-270" target="3QXeZZZweoPhM5f8Nh8O-277">
          <mxGeometry width="50" height="50" relative="1" as="geometry">
            <mxPoint x="1425" y="1710" as="sourcePoint" />
            <mxPoint x="1365" y="1810" as="targetPoint" />
          </mxGeometry>
        </mxCell>
        <mxCell id="3QXeZZZweoPhM5f8Nh8O-277" value="배치" style="shape=rhombus;perimeter=rhombusPerimeter;whiteSpace=wrap;html=1;align=center;" vertex="1" parent="1">
          <mxGeometry x="1371.5" y="1780" width="65" height="60" as="geometry" />
        </mxCell>
        <mxCell id="3QXeZZZweoPhM5f8Nh8O-278" value="" style="endArrow=none;html=1;rounded=0;exitX=1;exitY=0.5;exitDx=0;exitDy=0;entryX=0;entryY=0.5;entryDx=0;entryDy=0;" edge="1" parent="1" source="3QXeZZZweoPhM5f8Nh8O-277" target="3QXeZZZweoPhM5f8Nh8O-139">
          <mxGeometry width="50" height="50" relative="1" as="geometry">
            <mxPoint x="1455" y="1690" as="sourcePoint" />
            <mxPoint x="1552" y="1690" as="targetPoint" />
          </mxGeometry>
        </mxCell>
        <mxCell id="3QXeZZZweoPhM5f8Nh8O-279" value="&lt;u&gt;강의ID&lt;/u&gt;&lt;div&gt;&lt;u&gt;(FK.PK)&lt;/u&gt;&lt;/div&gt;" style="ellipse;whiteSpace=wrap;html=1;align=center;fontStyle=0" vertex="1" parent="1">
          <mxGeometry x="1400" y="1840" width="40" height="40" as="geometry" />
        </mxCell>
        <mxCell id="3QXeZZZweoPhM5f8Nh8O-280" value="강의장&lt;div&gt;ID(FK)&lt;/div&gt;" style="ellipse;whiteSpace=wrap;html=1;align=center;fontStyle=0" vertex="1" parent="1">
          <mxGeometry x="1360" y="1840" width="40" height="40" as="geometry" />
        </mxCell>
        <mxCell id="3QXeZZZweoPhM5f8Nh8O-281" value="N" style="text;html=1;align=center;verticalAlign=middle;resizable=0;points=[];autosize=1;strokeColor=none;fillColor=none;" vertex="1" parent="1">
          <mxGeometry x="1341.5" y="1780" width="30" height="30" as="geometry" />
        </mxCell>
        <mxCell id="3QXeZZZweoPhM5f8Nh8O-282" value="N" style="text;html=1;align=center;verticalAlign=middle;resizable=0;points=[];autosize=1;strokeColor=none;fillColor=none;" vertex="1" parent="1">
          <mxGeometry x="1436.5" y="1780" width="30" height="30" as="geometry" />
        </mxCell>
        <mxCell id="3QXeZZZweoPhM5f8Nh8O-283" value="1" style="text;html=1;align=center;verticalAlign=middle;resizable=0;points=[];autosize=1;strokeColor=none;fillColor=none;" vertex="1" parent="1">
          <mxGeometry x="1275" y="1780" width="30" height="30" as="geometry" />
        </mxCell>
        <mxCell id="3QXeZZZweoPhM5f8Nh8O-284" value="1" style="text;html=1;align=center;verticalAlign=middle;resizable=0;points=[];autosize=1;strokeColor=none;fillColor=none;" vertex="1" parent="1">
          <mxGeometry x="1501.5" y="1778" width="30" height="30" as="geometry" />
        </mxCell>
        <mxCell id="3QXeZZZweoPhM5f8Nh8O-285" value="복합키" style="text;html=1;align=center;verticalAlign=middle;resizable=0;points=[];autosize=1;strokeColor=none;fillColor=none;" vertex="1" parent="1">
          <mxGeometry x="1436.5" y="1865" width="60" height="30" as="geometry" />
        </mxCell>
      </root>
    </mxGraphModel>
  </diagram>
  <diagram id="2ThtcW0RepaApd2nZrIe" name="페이지-2">
    <mxGraphModel dx="1241" dy="2230" grid="1" gridSize="10" guides="1" tooltips="1" connect="1" arrows="1" fold="1" page="1" pageScale="1" pageWidth="827" pageHeight="1169" math="0" shadow="0">
      <root>
        <mxCell id="0" />
        <mxCell id="1" parent="0" />
        <mxCell id="g9y78ErFzmDSYz34sz2a-1" value="생산" style="whiteSpace=wrap;html=1;align=center;" vertex="1" parent="1">
          <mxGeometry x="717.5" y="-60" width="100" height="40" as="geometry" />
        </mxCell>
        <mxCell id="g9y78ErFzmDSYz34sz2a-2" value="주문" style="whiteSpace=wrap;html=1;align=center;" vertex="1" parent="1">
          <mxGeometry x="1080" y="-60" width="100" height="40" as="geometry" />
        </mxCell>
        <mxCell id="g9y78ErFzmDSYz34sz2a-19" value="" style="endArrow=none;html=1;rounded=0;exitX=1;exitY=0.5;exitDx=0;exitDy=0;entryX=0;entryY=0.5;entryDx=0;entryDy=0;" edge="1" parent="1" source="d6r91S2KXa1DnKhxSd1s-66" target="g9y78ErFzmDSYz34sz2a-2">
          <mxGeometry width="50" height="50" relative="1" as="geometry">
            <mxPoint x="1050" y="-160" as="sourcePoint" />
            <mxPoint x="1188" y="-160" as="targetPoint" />
          </mxGeometry>
        </mxCell>
        <mxCell id="g9y78ErFzmDSYz34sz2a-20" value="" style="endArrow=none;html=1;rounded=0;exitX=1;exitY=0.5;exitDx=0;exitDy=0;entryX=0;entryY=0.5;entryDx=0;entryDy=0;" edge="1" parent="1" source="g9y78ErFzmDSYz34sz2a-1">
          <mxGeometry width="50" height="50" relative="1" as="geometry">
            <mxPoint x="930" y="-160" as="sourcePoint" />
            <mxPoint x="797.5" y="-40" as="targetPoint" />
          </mxGeometry>
        </mxCell>
        <mxCell id="g9y78ErFzmDSYz34sz2a-41" value="거래처" style="whiteSpace=wrap;html=1;align=center;" vertex="1" parent="1">
          <mxGeometry x="361" y="-60" width="100" height="40" as="geometry" />
        </mxCell>
        <mxCell id="g9y78ErFzmDSYz34sz2a-47" value="" style="endArrow=none;html=1;rounded=0;exitX=1;exitY=0.5;exitDx=0;exitDy=0;entryX=0;entryY=0.5;entryDx=0;entryDy=0;" edge="1" parent="1" source="g9y78ErFzmDSYz34sz2a-41" target="g9y78ErFzmDSYz34sz2a-48">
          <mxGeometry width="50" height="50" relative="1" as="geometry">
            <mxPoint x="611" y="-140" as="sourcePoint" />
            <mxPoint x="551" y="-40" as="targetPoint" />
          </mxGeometry>
        </mxCell>
        <mxCell id="g9y78ErFzmDSYz34sz2a-48" value="유통" style="shape=rhombus;perimeter=rhombusPerimeter;whiteSpace=wrap;html=1;align=center;" vertex="1" parent="1">
          <mxGeometry x="557.5" y="-70" width="65" height="60" as="geometry" />
        </mxCell>
        <mxCell id="g9y78ErFzmDSYz34sz2a-49" value="" style="endArrow=none;html=1;rounded=0;exitX=1;exitY=0.5;exitDx=0;exitDy=0;entryX=0;entryY=0.5;entryDx=0;entryDy=0;" edge="1" parent="1" source="g9y78ErFzmDSYz34sz2a-48" target="g9y78ErFzmDSYz34sz2a-1">
          <mxGeometry width="50" height="50" relative="1" as="geometry">
            <mxPoint x="641" y="-160" as="sourcePoint" />
            <mxPoint x="738" y="-160" as="targetPoint" />
          </mxGeometry>
        </mxCell>
        <mxCell id="g9y78ErFzmDSYz34sz2a-57" value="" style="endArrow=none;html=1;rounded=0;exitX=0.081;exitY=1.037;exitDx=0;exitDy=0;entryX=0;entryY=0.5;entryDx=0;entryDy=0;exitPerimeter=0;" edge="1" parent="1" target="d6r91S2KXa1DnKhxSd1s-66">
          <mxGeometry width="50" height="50" relative="1" as="geometry">
            <mxPoint x="667.4299999999998" y="-40.8900000000001" as="sourcePoint" />
            <mxPoint x="1080" y="-40" as="targetPoint" />
          </mxGeometry>
        </mxCell>
        <mxCell id="d6r91S2KXa1DnKhxSd1s-66" value="제품" style="whiteSpace=wrap;html=1;align=center;" vertex="1" parent="1">
          <mxGeometry x="940" y="-60" width="100" height="40" as="geometry" />
        </mxCell>
        <mxCell id="g9y78ErFzmDSYz34sz2a-58" value="탄산" style="ellipse;whiteSpace=wrap;html=1;align=center;fontStyle=4;" vertex="1" parent="1">
          <mxGeometry x="707.5" y="10" width="40" height="42" as="geometry" />
        </mxCell>
        <mxCell id="g9y78ErFzmDSYz34sz2a-60" value="차" style="ellipse;whiteSpace=wrap;html=1;align=center;fontStyle=4;" vertex="1" parent="1">
          <mxGeometry x="747.5" y="10" width="40" height="42" as="geometry" />
        </mxCell>
        <mxCell id="g9y78ErFzmDSYz34sz2a-61" value="과일&lt;div&gt;주스&lt;/div&gt;" style="ellipse;whiteSpace=wrap;html=1;align=center;fontStyle=4;" vertex="1" parent="1">
          <mxGeometry x="787.5" y="10" width="40" height="42" as="geometry" />
        </mxCell>
        <mxCell id="g9y78ErFzmDSYz34sz2a-62" value="재고" style="ellipse;whiteSpace=wrap;html=1;align=center;fontStyle=4;" vertex="1" parent="1">
          <mxGeometry x="940" width="40" height="42" as="geometry" />
        </mxCell>
        <mxCell id="g9y78ErFzmDSYz34sz2a-63" value="종류" style="ellipse;whiteSpace=wrap;html=1;align=center;fontStyle=4;" vertex="1" parent="1">
          <mxGeometry x="1080" width="40" height="42" as="geometry" />
        </mxCell>
        <mxCell id="g9y78ErFzmDSYz34sz2a-64" value="개수" style="ellipse;whiteSpace=wrap;html=1;align=center;fontStyle=4;" vertex="1" parent="1">
          <mxGeometry x="1120" width="40" height="42" as="geometry" />
        </mxCell>
        <mxCell id="g9y78ErFzmDSYz34sz2a-65" value="유통&lt;div&gt;방법&lt;/div&gt;" style="ellipse;whiteSpace=wrap;html=1;align=center;fontStyle=4;" vertex="1" parent="1">
          <mxGeometry x="545" width="40" height="42" as="geometry" />
        </mxCell>
        <mxCell id="g9y78ErFzmDSYz34sz2a-66" value="주소" style="ellipse;whiteSpace=wrap;html=1;align=center;fontStyle=4;" vertex="1" parent="1">
          <mxGeometry x="361" width="40" height="42" as="geometry" />
        </mxCell>
        <mxCell id="g9y78ErFzmDSYz34sz2a-67" value="국가" style="ellipse;whiteSpace=wrap;html=1;align=center;fontStyle=4;" vertex="1" parent="1">
          <mxGeometry x="414" width="40" height="42" as="geometry" />
        </mxCell>
        <mxCell id="g9y78ErFzmDSYz34sz2a-68" value="기간" style="ellipse;whiteSpace=wrap;html=1;align=center;fontStyle=4;" vertex="1" parent="1">
          <mxGeometry x="585" width="40" height="42" as="geometry" />
        </mxCell>
        <mxCell id="g9y78ErFzmDSYz34sz2a-70" value="" style="whiteSpace=wrap;html=1;align=center;" vertex="1" parent="1">
          <mxGeometry x="550" y="-220" width="100" height="40" as="geometry" />
        </mxCell>
        <mxCell id="g9y78ErFzmDSYz34sz2a-71" value="주문" style="shape=table;startSize=30;container=1;collapsible=1;childLayout=tableLayout;fixedRows=1;rowLines=0;fontStyle=1;align=center;resizeLast=1;html=1;" vertex="1" parent="1">
          <mxGeometry x="1040" y="80" width="180" height="150" as="geometry" />
        </mxCell>
        <mxCell id="g9y78ErFzmDSYz34sz2a-72" value="" style="shape=tableRow;horizontal=0;startSize=0;swimlaneHead=0;swimlaneBody=0;fillColor=none;collapsible=0;dropTarget=0;points=[[0,0.5],[1,0.5]];portConstraint=eastwest;top=0;left=0;right=0;bottom=1;" vertex="1" parent="g9y78ErFzmDSYz34sz2a-71">
          <mxGeometry y="30" width="180" height="30" as="geometry" />
        </mxCell>
        <mxCell id="g9y78ErFzmDSYz34sz2a-73" value="PK" style="shape=partialRectangle;connectable=0;fillColor=none;top=0;left=0;bottom=0;right=0;fontStyle=1;overflow=hidden;whiteSpace=wrap;html=1;" vertex="1" parent="g9y78ErFzmDSYz34sz2a-72">
          <mxGeometry width="30" height="30" as="geometry">
            <mxRectangle width="30" height="30" as="alternateBounds" />
          </mxGeometry>
        </mxCell>
        <mxCell id="g9y78ErFzmDSYz34sz2a-74" value="종류" style="shape=partialRectangle;connectable=0;fillColor=none;top=0;left=0;bottom=0;right=0;align=left;spacingLeft=6;fontStyle=5;overflow=hidden;whiteSpace=wrap;html=1;" vertex="1" parent="g9y78ErFzmDSYz34sz2a-72">
          <mxGeometry x="30" width="150" height="30" as="geometry">
            <mxRectangle width="150" height="30" as="alternateBounds" />
          </mxGeometry>
        </mxCell>
        <mxCell id="g9y78ErFzmDSYz34sz2a-75" value="" style="shape=tableRow;horizontal=0;startSize=0;swimlaneHead=0;swimlaneBody=0;fillColor=none;collapsible=0;dropTarget=0;points=[[0,0.5],[1,0.5]];portConstraint=eastwest;top=0;left=0;right=0;bottom=0;" vertex="1" parent="g9y78ErFzmDSYz34sz2a-71">
          <mxGeometry y="60" width="180" height="30" as="geometry" />
        </mxCell>
        <mxCell id="g9y78ErFzmDSYz34sz2a-76" value="" style="shape=partialRectangle;connectable=0;fillColor=none;top=0;left=0;bottom=0;right=0;editable=1;overflow=hidden;whiteSpace=wrap;html=1;" vertex="1" parent="g9y78ErFzmDSYz34sz2a-75">
          <mxGeometry width="30" height="30" as="geometry">
            <mxRectangle width="30" height="30" as="alternateBounds" />
          </mxGeometry>
        </mxCell>
        <mxCell id="g9y78ErFzmDSYz34sz2a-77" value="" style="shape=partialRectangle;connectable=0;fillColor=none;top=0;left=0;bottom=0;right=0;align=left;spacingLeft=6;overflow=hidden;whiteSpace=wrap;html=1;" vertex="1" parent="g9y78ErFzmDSYz34sz2a-75">
          <mxGeometry x="30" width="150" height="30" as="geometry">
            <mxRectangle width="150" height="30" as="alternateBounds" />
          </mxGeometry>
        </mxCell>
        <mxCell id="g9y78ErFzmDSYz34sz2a-78" value="" style="shape=tableRow;horizontal=0;startSize=0;swimlaneHead=0;swimlaneBody=0;fillColor=none;collapsible=0;dropTarget=0;points=[[0,0.5],[1,0.5]];portConstraint=eastwest;top=0;left=0;right=0;bottom=0;" vertex="1" parent="g9y78ErFzmDSYz34sz2a-71">
          <mxGeometry y="90" width="180" height="30" as="geometry" />
        </mxCell>
        <mxCell id="g9y78ErFzmDSYz34sz2a-79" value="" style="shape=partialRectangle;connectable=0;fillColor=none;top=0;left=0;bottom=0;right=0;editable=1;overflow=hidden;whiteSpace=wrap;html=1;" vertex="1" parent="g9y78ErFzmDSYz34sz2a-78">
          <mxGeometry width="30" height="30" as="geometry">
            <mxRectangle width="30" height="30" as="alternateBounds" />
          </mxGeometry>
        </mxCell>
        <mxCell id="g9y78ErFzmDSYz34sz2a-80" value="" style="shape=partialRectangle;connectable=0;fillColor=none;top=0;left=0;bottom=0;right=0;align=left;spacingLeft=6;overflow=hidden;whiteSpace=wrap;html=1;" vertex="1" parent="g9y78ErFzmDSYz34sz2a-78">
          <mxGeometry x="30" width="150" height="30" as="geometry">
            <mxRectangle width="150" height="30" as="alternateBounds" />
          </mxGeometry>
        </mxCell>
        <mxCell id="g9y78ErFzmDSYz34sz2a-81" value="" style="shape=tableRow;horizontal=0;startSize=0;swimlaneHead=0;swimlaneBody=0;fillColor=none;collapsible=0;dropTarget=0;points=[[0,0.5],[1,0.5]];portConstraint=eastwest;top=0;left=0;right=0;bottom=0;" vertex="1" parent="g9y78ErFzmDSYz34sz2a-71">
          <mxGeometry y="120" width="180" height="30" as="geometry" />
        </mxCell>
        <mxCell id="g9y78ErFzmDSYz34sz2a-82" value="" style="shape=partialRectangle;connectable=0;fillColor=none;top=0;left=0;bottom=0;right=0;editable=1;overflow=hidden;whiteSpace=wrap;html=1;" vertex="1" parent="g9y78ErFzmDSYz34sz2a-81">
          <mxGeometry width="30" height="30" as="geometry">
            <mxRectangle width="30" height="30" as="alternateBounds" />
          </mxGeometry>
        </mxCell>
        <mxCell id="g9y78ErFzmDSYz34sz2a-83" value="" style="shape=partialRectangle;connectable=0;fillColor=none;top=0;left=0;bottom=0;right=0;align=left;spacingLeft=6;overflow=hidden;whiteSpace=wrap;html=1;" vertex="1" parent="g9y78ErFzmDSYz34sz2a-81">
          <mxGeometry x="30" width="150" height="30" as="geometry">
            <mxRectangle width="150" height="30" as="alternateBounds" />
          </mxGeometry>
        </mxCell>
      </root>
    </mxGraphModel>
  </diagram>
</mxfile>
